<?xml version="1.0" encoding="UTF-8" standalone="no"?>
<!-- Created with Inkscape (http://www.inkscape.org/) -->

<svg
   version="1.1"
   id="svg2"
   xml:space="preserve"
   width="5374"
   height="3037.96"
   viewBox="0 0 5374 3037.96"
   sodipodi:docname="1802739718-vector.eps"
   xmlns:inkscape="http://www.inkscape.org/namespaces/inkscape"
   xmlns:sodipodi="http://sodipodi.sourceforge.net/DTD/sodipodi-0.dtd"
   xmlns="http://www.w3.org/2000/svg"
   xmlns:svg="http://www.w3.org/2000/svg"><defs
     id="defs6"><clipPath
       clipPathUnits="userSpaceOnUse"
       id="clipPath20"><path
         d="M 16672.7,13744.1 H 7968.3 c 0,0 -472.05,597.1 0,998.9 260.49,221.8 568.1,198.8 791.56,133.7 145.6,-42.5 290.77,55.7 322.73,204 52.93,245.5 216.04,566.8 684.58,756.6 460.93,186.7 752.53,-98.4 921.23,-391.4 55.5,-96.4 203.3,-81.9 236.8,24.1 146.1,462.6 655.3,1075.8 2328.5,1075.8 2128.1,0 1891.6,-1131.4 1701.4,-1601.5 -33,-81.7 36.9,-166.3 123.1,-147.9 328.2,70.2 937.5,161.1 1210.7,-53.4 383.8,-301.2 383.8,-998.9 383.8,-998.9 z"
         id="path18" /></clipPath><linearGradient
       x1="0"
       y1="0"
       x2="1"
       y2="0"
       gradientUnits="userSpaceOnUse"
       gradientTransform="matrix(-8914.18,0,0,-8914.18,16672.7,15144.9)"
       spreadMethod="pad"
       id="linearGradient26"><stop
         style="stop-opacity:1;stop-color:#ddeee9"
         offset="0"
         id="stop22" /><stop
         style="stop-opacity:1;stop-color:#bfe3ec"
         offset="1"
         id="stop24" /></linearGradient><clipPath
       clipPathUnits="userSpaceOnUse"
       id="clipPath36"><path
         d="m 24153.4,11717.7 h 7188.3 c 0,0 389.8,493.1 0,825 -215.1,183.1 -469.1,164.1 -653.7,110.4 -120.2,-35.1 -240.1,46 -266.5,168.4 -43.7,202.8 -178.4,468.1 -565.3,624.9 -380.7,154.2 -621.5,-81.3 -760.8,-323.3 -45.9,-79.6 -167.9,-67.6 -195.6,19.9 -120.6,382 -541.2,888.4 -1922.9,888.4 -1757.4,0 -1562.1,-934.3 -1405.1,-1322.5 27.3,-67.5 -30.4,-137.3 -101.6,-122.1 -271.1,57.9 -774.2,133 -999.8,-44.1 -317,-248.8 -317,-825 -317,-825 z"
         id="path34" /></clipPath><linearGradient
       x1="0"
       y1="0"
       x2="1"
       y2="0"
       gradientUnits="userSpaceOnUse"
       gradientTransform="matrix(7361.53,0,0,-7361.53,24153.4,12874.6)"
       spreadMethod="pad"
       id="linearGradient42"><stop
         style="stop-opacity:1;stop-color:#ddeee9"
         offset="0"
         id="stop38" /><stop
         style="stop-opacity:1;stop-color:#bfe3ec"
         offset="1"
         id="stop40" /></linearGradient><clipPath
       clipPathUnits="userSpaceOnUse"
       id="clipPath154"><path
         d="m 6695.4,8966.4 h -924.06 v -251 h 924.06 z"
         id="path152" /></clipPath><linearGradient
       x1="0"
       y1="0"
       x2="1"
       y2="0"
       gradientUnits="userSpaceOnUse"
       gradientTransform="matrix(924.064,0,0,-924.064,5771.34,8840.9)"
       spreadMethod="pad"
       id="linearGradient160"><stop
         style="stop-opacity:1;stop-color:#deeee9"
         offset="0"
         id="stop156" /><stop
         style="stop-opacity:1;stop-color:#bfe3ed"
         offset="1"
         id="stop158" /></linearGradient><clipPath
       clipPathUnits="userSpaceOnUse"
       id="clipPath170"><path
         d="m 7775.71,8966.4 v -251 h 945.7 v 251 z"
         id="path168" /></clipPath><linearGradient
       x1="0"
       y1="0"
       x2="1"
       y2="0"
       gradientUnits="userSpaceOnUse"
       gradientTransform="matrix(945.696,0,0,-945.696,7775.71,8840.9)"
       spreadMethod="pad"
       id="linearGradient176"><stop
         style="stop-opacity:1;stop-color:#deeee9"
         offset="0"
         id="stop172" /><stop
         style="stop-opacity:1;stop-color:#bfe3ed"
         offset="1"
         id="stop174" /></linearGradient><clipPath
       clipPathUnits="userSpaceOnUse"
       id="clipPath186"><path
         d="m 6695.4,8239.1 h -924.06 v -251 h 924.06 z"
         id="path184" /></clipPath><linearGradient
       x1="0"
       y1="0"
       x2="1"
       y2="0"
       gradientUnits="userSpaceOnUse"
       gradientTransform="matrix(924.064,0,0,-924.064,5771.34,8113.6)"
       spreadMethod="pad"
       id="linearGradient192"><stop
         style="stop-opacity:1;stop-color:#deeee9"
         offset="0"
         id="stop188" /><stop
         style="stop-opacity:1;stop-color:#bfe3ed"
         offset="1"
         id="stop190" /></linearGradient><clipPath
       clipPathUnits="userSpaceOnUse"
       id="clipPath202"><path
         d="m 7775.71,8239.1 v -251 h 945.7 v 251 z"
         id="path200" /></clipPath><linearGradient
       x1="0"
       y1="0"
       x2="1"
       y2="0"
       gradientUnits="userSpaceOnUse"
       gradientTransform="matrix(945.696,0,0,-945.696,7775.71,8113.6)"
       spreadMethod="pad"
       id="linearGradient208"><stop
         style="stop-opacity:1;stop-color:#deeee9"
         offset="0"
         id="stop204" /><stop
         style="stop-opacity:1;stop-color:#bfe3ed"
         offset="1"
         id="stop206" /></linearGradient><clipPath
       clipPathUnits="userSpaceOnUse"
       id="clipPath218"><path
         d="m 6695.4,7514.4 h -924.06 v -251 h 924.06 z"
         id="path216" /></clipPath><linearGradient
       x1="0"
       y1="0"
       x2="1"
       y2="0"
       gradientUnits="userSpaceOnUse"
       gradientTransform="matrix(924.064,0,0,-924.064,5771.34,7388.9)"
       spreadMethod="pad"
       id="linearGradient224"><stop
         style="stop-opacity:1;stop-color:#deeee9"
         offset="0"
         id="stop220" /><stop
         style="stop-opacity:1;stop-color:#bfe3ed"
         offset="1"
         id="stop222" /></linearGradient><clipPath
       clipPathUnits="userSpaceOnUse"
       id="clipPath234"><path
         d="m 7775.71,7514.4 v -251 h 945.7 v 251 z"
         id="path232" /></clipPath><linearGradient
       x1="0"
       y1="0"
       x2="1"
       y2="0"
       gradientUnits="userSpaceOnUse"
       gradientTransform="matrix(945.696,0,0,-945.696,7775.71,7388.9)"
       spreadMethod="pad"
       id="linearGradient240"><stop
         style="stop-opacity:1;stop-color:#deeee9"
         offset="0"
         id="stop236" /><stop
         style="stop-opacity:1;stop-color:#bfe3ed"
         offset="1"
         id="stop238" /></linearGradient><clipPath
       clipPathUnits="userSpaceOnUse"
       id="clipPath250"><path
         d="m 6695.4,6787.1 h -924.06 v -251 h 924.06 z"
         id="path248" /></clipPath><linearGradient
       x1="0"
       y1="0"
       x2="1"
       y2="0"
       gradientUnits="userSpaceOnUse"
       gradientTransform="matrix(924.064,0,0,-924.064,5771.34,6661.6)"
       spreadMethod="pad"
       id="linearGradient256"><stop
         style="stop-opacity:1;stop-color:#deeee9"
         offset="0"
         id="stop252" /><stop
         style="stop-opacity:1;stop-color:#bfe3ed"
         offset="1"
         id="stop254" /></linearGradient><clipPath
       clipPathUnits="userSpaceOnUse"
       id="clipPath266"><path
         d="m 7775.71,6787.1 v -251 h 945.7 v 251 z"
         id="path264" /></clipPath><linearGradient
       x1="0"
       y1="0"
       x2="1"
       y2="0"
       gradientUnits="userSpaceOnUse"
       gradientTransform="matrix(945.696,0,0,-945.696,7775.71,6661.6)"
       spreadMethod="pad"
       id="linearGradient272"><stop
         style="stop-opacity:1;stop-color:#deeee9"
         offset="0"
         id="stop268" /><stop
         style="stop-opacity:1;stop-color:#bfe3ed"
         offset="1"
         id="stop270" /></linearGradient><clipPath
       clipPathUnits="userSpaceOnUse"
       id="clipPath282"><path
         d="M 6695.4,6069.4 H 5771.34 V 5818.3 H 6695.4 Z"
         id="path280" /></clipPath><linearGradient
       x1="0"
       y1="0"
       x2="1"
       y2="0"
       gradientUnits="userSpaceOnUse"
       gradientTransform="matrix(924.064,0,0,-924.064,5771.34,5943.9)"
       spreadMethod="pad"
       id="linearGradient288"><stop
         style="stop-opacity:1;stop-color:#deeee9"
         offset="0"
         id="stop284" /><stop
         style="stop-opacity:1;stop-color:#bfe3ed"
         offset="1"
         id="stop286" /></linearGradient><clipPath
       clipPathUnits="userSpaceOnUse"
       id="clipPath298"><path
         d="m 7775.71,6069.4 v -251.1 h 945.7 v 251.1 z"
         id="path296" /></clipPath><linearGradient
       x1="0"
       y1="0"
       x2="1"
       y2="0"
       gradientUnits="userSpaceOnUse"
       gradientTransform="matrix(945.696,0,0,-945.696,7775.71,5943.9)"
       spreadMethod="pad"
       id="linearGradient304"><stop
         style="stop-opacity:1;stop-color:#deeee9"
         offset="0"
         id="stop300" /><stop
         style="stop-opacity:1;stop-color:#bfe3ed"
         offset="1"
         id="stop302" /></linearGradient><clipPath
       clipPathUnits="userSpaceOnUse"
       id="clipPath314"><path
         d="M 6695.4,5342.1 H 5771.34 V 5091 h 924.06 z"
         id="path312" /></clipPath><linearGradient
       x1="0"
       y1="0"
       x2="1"
       y2="0"
       gradientUnits="userSpaceOnUse"
       gradientTransform="matrix(924.064,0,0,-924.064,5771.34,5216.5)"
       spreadMethod="pad"
       id="linearGradient320"><stop
         style="stop-opacity:1;stop-color:#deeee9"
         offset="0"
         id="stop316" /><stop
         style="stop-opacity:1;stop-color:#bfe3ed"
         offset="1"
         id="stop318" /></linearGradient><clipPath
       clipPathUnits="userSpaceOnUse"
       id="clipPath330"><path
         d="M 7775.71,5342.1 V 5091 h 945.7 v 251.1 z"
         id="path328" /></clipPath><linearGradient
       x1="0"
       y1="0"
       x2="1"
       y2="0"
       gradientUnits="userSpaceOnUse"
       gradientTransform="matrix(945.696,0,0,-945.696,7775.71,5216.5)"
       spreadMethod="pad"
       id="linearGradient336"><stop
         style="stop-opacity:1;stop-color:#deeee9"
         offset="0"
         id="stop332" /><stop
         style="stop-opacity:1;stop-color:#bfe3ed"
         offset="1"
         id="stop334" /></linearGradient><clipPath
       clipPathUnits="userSpaceOnUse"
       id="clipPath346"><path
         d="M 6695.4,4617.4 H 5771.34 V 4366.3 H 6695.4 Z"
         id="path344" /></clipPath><linearGradient
       x1="0"
       y1="0"
       x2="1"
       y2="0"
       gradientUnits="userSpaceOnUse"
       gradientTransform="matrix(924.064,0,0,-924.064,5771.34,4491.9)"
       spreadMethod="pad"
       id="linearGradient352"><stop
         style="stop-opacity:1;stop-color:#deeee9"
         offset="0"
         id="stop348" /><stop
         style="stop-opacity:1;stop-color:#bfe3ed"
         offset="1"
         id="stop350" /></linearGradient><clipPath
       clipPathUnits="userSpaceOnUse"
       id="clipPath362"><path
         d="m 7775.71,4617.4 v -251.1 h 945.7 v 251.1 z"
         id="path360" /></clipPath><linearGradient
       x1="0"
       y1="0"
       x2="1"
       y2="0"
       gradientUnits="userSpaceOnUse"
       gradientTransform="matrix(945.696,0,0,-945.696,7775.71,4491.9)"
       spreadMethod="pad"
       id="linearGradient368"><stop
         style="stop-opacity:1;stop-color:#deeee9"
         offset="0"
         id="stop364" /><stop
         style="stop-opacity:1;stop-color:#bfe3ed"
         offset="1"
         id="stop366" /></linearGradient><clipPath
       clipPathUnits="userSpaceOnUse"
       id="clipPath378"><path
         d="M 6695.4,3890.1 H 5771.34 V 3639 h 924.06 z"
         id="path376" /></clipPath><linearGradient
       x1="0"
       y1="0"
       x2="1"
       y2="0"
       gradientUnits="userSpaceOnUse"
       gradientTransform="matrix(924.064,0,0,-924.064,5771.34,3764.6)"
       spreadMethod="pad"
       id="linearGradient384"><stop
         style="stop-opacity:1;stop-color:#deeee9"
         offset="0"
         id="stop380" /><stop
         style="stop-opacity:1;stop-color:#bfe3ed"
         offset="1"
         id="stop382" /></linearGradient><clipPath
       clipPathUnits="userSpaceOnUse"
       id="clipPath394"><path
         d="M 7775.71,3890.1 V 3639 h 945.7 v 251.1 z"
         id="path392" /></clipPath><linearGradient
       x1="0"
       y1="0"
       x2="1"
       y2="0"
       gradientUnits="userSpaceOnUse"
       gradientTransform="matrix(945.696,0,0,-945.696,7775.71,3764.6)"
       spreadMethod="pad"
       id="linearGradient400"><stop
         style="stop-opacity:1;stop-color:#deeee9"
         offset="0"
         id="stop396" /><stop
         style="stop-opacity:1;stop-color:#bfe3ed"
         offset="1"
         id="stop398" /></linearGradient></defs><sodipodi:namedview
     id="namedview4"
     pagecolor="#ffffff"
     bordercolor="#666666"
     borderopacity="1.0"
     inkscape:pageshadow="2"
     inkscape:pageopacity="0.0"
     inkscape:pagecheckerboard="0" /><g
     id="g8"
     inkscape:groupmode="layer"
     inkscape:label="ink_ext_XXXXXX"
     transform="matrix(1.3333333,0,0,-1.3333333,0,3037.96)"><g
       id="g10"
       transform="scale(0.1)"><path
         d="M 40305,0 H -0.00390625 V 22784.7 H 40305 V 0"
         style="fill:#ffffff;fill-opacity:1;fill-rule:nonzero;stroke:none"
         id="path12" /><g
         id="g14"><g
           id="g16"
           clip-path="url(#clipPath20)"><path
             d="M 16672.7,13744.1 H 7968.3 c 0,0 -472.05,597.1 0,998.9 260.49,221.8 568.1,198.8 791.56,133.7 145.6,-42.5 290.77,55.7 322.73,204 52.93,245.5 216.04,566.8 684.58,756.6 460.93,186.7 752.53,-98.4 921.23,-391.4 55.5,-96.4 203.3,-81.9 236.8,24.1 146.1,462.6 655.3,1075.8 2328.5,1075.8 2128.1,0 1891.6,-1131.4 1701.4,-1601.5 -33,-81.7 36.9,-166.3 123.1,-147.9 328.2,70.2 937.5,161.1 1210.7,-53.4 383.8,-301.2 383.8,-998.9 383.8,-998.9"
             style="fill:url(#linearGradient26);fill-opacity:1;fill-rule:nonzero;stroke:none"
             id="path28" /></g></g><g
         id="g30"><g
           id="g32"
           clip-path="url(#clipPath36)"><path
             d="m 24153.4,11717.7 h 7188.3 c 0,0 389.8,493.1 0,825 -215.1,183.1 -469.1,164.1 -653.7,110.4 -120.2,-35.1 -240.1,46 -266.5,168.4 -43.7,202.8 -178.4,468.1 -565.3,624.9 -380.7,154.2 -621.5,-81.3 -760.8,-323.3 -45.9,-79.6 -167.9,-67.6 -195.6,19.9 -120.6,382 -541.2,888.4 -1922.9,888.4 -1757.4,0 -1562.1,-934.3 -1405.1,-1322.5 27.3,-67.5 -30.4,-137.3 -101.6,-122.1 -271.1,57.9 -774.2,133 -999.8,-44.1 -317,-248.8 -317,-825 -317,-825"
             style="fill:url(#linearGradient42);fill-opacity:1;fill-rule:nonzero;stroke:none"
             id="path44" /></g></g><path
         d="m 30850.6,8071.5 c 0,0 -1716.8,2382.1 -570.7,4202.7 C 33912.4,11562.7 33203,7992 33203,7992 l -2352.4,79.5"
         style="fill:#afd7c7;fill-opacity:1;fill-rule:nonzero;stroke:none"
         id="path46" /><path
         d="m 30279.9,12274.2 c 12.6,-2.5 25,-5.1 37.5,-7.7 l 1257.6,-3223.1 1000.2,1912 c 14.4,-19.3 28.5,-38.6 42.3,-58.1 l -1011.4,-1933.5 362.9,-930.1 -70.1,2.4 -723.4,1854.1 v -0.1 l -1221.5,269.2 c -4.3,22.9 -8.7,45.8 -12.7,68.8 l 1206,-265.7 -888.4,2277 c 7,11.6 13.7,23.2 20.9,34.8 h 0.1"
         style="fill:#ffffff;fill-opacity:1;fill-rule:nonzero;stroke:none"
         id="path48" /><path
         d="m 31379.3,8917.2 c 0,0 147.9,2924.4 2007.6,3811.5 2023,-1430.7 770.3,-3929.5 770.3,-3929.5 l -1938.8,-1672.8 -839.1,1790.8"
         style="fill:#01888b;fill-opacity:1;fill-rule:nonzero;stroke:none"
         id="path50" /><path
         d="m 31879.9,11010.6 918.1,-918.3 545.3,2614.6 c 14.6,7.2 28.9,14.8 43.6,21.8 8,-5.6 15.4,-11.4 23.3,-17.1 l -292.1,-1400.3 1049.1,595.5 c 5.9,-9.9 11.5,-19.7 17.2,-29.6 l 15,-26.3 -1098.8,-623.7 -486.7,-2333.6 1874.5,986.4 c -4.5,-27.1 -9.2,-53.9 -14.1,-80.3 l -1877.5,-987.9 -345.6,-1657.1 -32.8,-28.3 -27,57.6 590.9,2832.8 -929.5,929.7 c 8.9,21.4 17.9,42.7 27.1,64.1"
         style="fill:#00666b;fill-opacity:1;fill-rule:nonzero;stroke:none"
         id="path52" /><path
         d="m 32420.1,7979.3 c 0,0 1514,1918.6 3083.2,1437 851.8,-3241.8 -3211.7,-4554.1 -3211.7,-4554.1 l 128.5,3117.1"
         style="fill:#64c0c3;fill-opacity:1;fill-rule:nonzero;stroke:none"
         id="path54" /><path
         d="m 35503.4,9416.3 c 3.2,-12.5 6.2,-24.9 9.4,-37.3 l -2244.4,-2432.9 1797.2,-127.8 c -14.4,-20.7 -29,-41.2 -43.7,-61.5 l -1809.5,128.6 -876.6,-950.2 4.1,99.6 1706.7,1850.1 -48,1368.9 c 21.1,9.9 42.2,19.6 63.5,29 l 46.7,-1330.6 1359.7,1474 c 11.6,-3.3 23.2,-6.3 34.8,-9.9 h 0.1"
         style="fill:#ffffff;fill-opacity:1;fill-rule:nonzero;stroke:none"
         id="path56" /><path
         d="m 37613.5,6583.9 h -252.4 v 406.3 h 252.4 v -406.3"
         style="fill:#00878a;fill-opacity:1;fill-rule:nonzero;stroke:none"
         id="path58" /><path
         d="m 38611.9,3063.5 h -3786.3 v 2136.4 h 3786.3 V 3063.5"
         style="fill:#afd7c7;fill-opacity:1;fill-rule:nonzero;stroke:none"
         id="path60" /><path
         d="M 37897.7,6720.6 H 35533.6 L 34339.2,5199.9 h 4752.9 l -1194.4,1520.7"
         style="fill:#00878a;fill-opacity:1;fill-rule:nonzero;stroke:none"
         id="path62" /><path
         d="m 36253.9,3758.7 v 772.6 c 0,184.5 -119.1,335.5 -264.7,335.5 h -12.3 c -145.6,0 -264.8,-151 -264.8,-335.5 v -772.6 h 541.8"
         style="fill:#ffffff;fill-opacity:1;fill-rule:nonzero;stroke:none"
         id="path64" /><path
         d="M 36253.9,4355.8 H 36020 v 511 h -73.9 v -511 h -234 v -67.7 h 234 v -529.4 h 73.9 v 529.4 h 233.9 v 67.7"
         style="fill:#00878a;fill-opacity:1;fill-rule:nonzero;stroke:none"
         id="path66" /><path
         d="m 37632.2,3765 v 772.6 c 0,184.5 -112.9,335.5 -250.9,335.5 h -11.7 c -138,0 -250.9,-151 -250.9,-335.5 V 3765 h 513.5"
         style="fill:#ffffff;fill-opacity:1;fill-rule:nonzero;stroke:none"
         id="path68" /><path
         d="m 37632.2,4362.1 h -221.7 v 511 h -70.1 v -511 h -221.7 v -67.7 h 221.7 V 3765 h 70.1 v 529.4 h 221.7 v 67.7"
         style="fill:#00878a;fill-opacity:1;fill-rule:nonzero;stroke:none"
         id="path70" /><path
         d="M 28186.9,3058.9 H 12023.2 c 0,0 -492.8,9228.8 1587.9,9351.1 1422.8,83.7 2164.4,-2740.8 2870.5,-4155 330.4,-661.5 1252.7,-707.7 1649.3,-83.6 493.5,776.6 834.6,2340.1 1868.6,2340.1 1514,0 2006.5,-3964 2834.7,-5385 432.8,-742.5 1314.8,-768.9 1781.4,-47.1 576.3,891.2 590.6,3842 2178.4,3592.4 1333.6,-209.6 1392.9,-5612.9 1392.9,-5612.9"
         style="fill:#64c0c3;fill-opacity:1;fill-rule:nonzero;stroke:none"
         id="path72" /><path
         d="m 15322.8,12666.6 11.7,33.7 c 65.2,-22.6 131.5,-52.9 197,-90 l -17.5,-31.1 c -63.7,36 -128,65.4 -191.2,87.4 z m 367.1,-204.6 21.7,28.3 c 54.5,-41.6 109.7,-88.9 164.2,-140.4 l -24.5,-26 c -53.6,50.7 -107.9,97.1 -161.4,138.1 z m 309.8,-290.8 26.6,23.9 c 46.2,-51.4 93,-106.9 138.8,-165 l -28,-22.1 c -45.4,57.4 -91.6,112.4 -137.4,163.2 z m 3789,-483.2 -1.4,35.6 c 70.3,2.7 143.1,2.1 216.7,-8.5 l -5.1,-35.4 c -71.5,10.3 -142,10.8 -210.2,8.3 z m -3523.6,148.9 29.1,20.6 c 40.1,-56.5 80.7,-116.5 120.7,-178.3 l -30,-19.4 c -39.6,61.4 -80,120.9 -119.8,177.1 z m 3095.8,-174.3 c 69.5,17.6 140.7,31.6 211.7,41.8 l 5,-35.4 c -69.7,-9.9 -139.6,-23.8 -207.9,-41.1 z m 840.9,-33 11.6,33.7 c 64.8,-22.4 131.4,-51.3 198,-86 l -16.5,-31.7 c -65.1,33.9 -130.1,62.1 -193.1,84 z m -1245.2,-116.1 c 65,31.8 131.7,60.5 198.3,85.1 l 12.4,-33.6 c -65.5,-24.1 -131.1,-52.3 -195,-83.6 z m 1620.2,-76.3 19.9,29.6 c 57,-38.2 115.5,-81.2 173.7,-127.9 l -22.3,-27.8 c -57.5,46 -115.1,88.4 -171.3,126.1 z m -4079,40.8 30.7,18.3 c 35.6,-59.7 71.7,-122.5 107.3,-186.7 l -31.3,-17.3 c -35.4,63.8 -71.3,126.3 -106.7,185.7 z m 2091.4,-190 c 58.4,43.5 118.5,84.3 178.5,121.2 l 18.7,-30.4 c -59.1,-36.4 -118.3,-76.6 -175.9,-119.4 z m 2320.5,-115.9 24.2,26.4 c 50.9,-46.8 103,-97.3 154.6,-150 l -25.5,-25 c -51.2,52.3 -102.8,102.3 -153.3,148.6 z M 18264.8,11004 c 51.1,51.9 103.8,101.8 156.7,148.2 l 23.6,-26.8 c -52.2,-45.9 -104.4,-95.1 -154.8,-146.4 z m -1559,99.5 31.7,16.5 c 32.2,-62 64.7,-126.7 96.7,-192.2 l -32,-15.7 c -31.9,65.3 -64.4,129.7 -96.4,191.4 z m 4503.3,-236 26.6,23.8 c 46.4,-51.7 93.7,-106.5 140.7,-162.9 l -27.5,-22.9 c -46.6,56.1 -93.7,110.6 -139.8,162 z M 17983,10678 c 44,57.6 89.7,113.9 135.8,167.4 l 27,-23.3 c -45.6,-52.9 -90.8,-108.7 -134.4,-165.8 z m -1089,40.5 32.5,14.9 c 30.7,-66.6 60.1,-132.2 88.1,-196.3 l -32.8,-14.2 c -27.9,63.8 -57.1,129.2 -87.8,195.6 z m 4589.2,-179.6 28.2,21.9 c 42.9,-54.8 86.6,-112.5 130.1,-171.3 l -28.8,-21.2 c -43.2,58.5 -86.8,115.9 -129.5,170.6 z m -3742.9,-217 c 37.8,61.9 77,122.9 116.7,181.2 l 29.5,-20.1 c -39.3,-57.8 -78.2,-118.3 -115.7,-179.7 z m -674.5,3.6 33,13.7 c 28.7,-69.6 55.5,-136.3 80.5,-199.6 l -33.3,-13.1 c -24.8,63.1 -51.6,129.7 -80.2,199 z m 4672.1,-131.1 29.2,20.6 c 40.9,-58.3 81.5,-117.4 121.7,-177.3 l -29.6,-19.9 c -40.1,59.7 -80.6,118.6 -121.3,176.6 z m -4204.2,-250.7 c 31.2,64.1 64.5,128.5 98.9,191.5 l 31.3,-17.1 c -34.1,-62.5 -67.1,-126.5 -98.1,-190.1 z m -311.1,-17.6 33.5,12.4 c 28.6,-76.9 53,-145.1 73.1,-202.5 l -33.7,-11.8 c -20,57.2 -44.4,125.2 -72.9,201.9 z m 4754.4,-87.3 30,19.4 c 38.7,-60.1 77.1,-120.7 115,-181.7 l -30.4,-18.8 c -37.8,60.8 -76,121.3 -114.6,181.1 z m 4147.6,-231.1 c 71.2,21.4 142.6,35.9 212.2,43.2 l 3.7,-35.5 c -67.4,-7.1 -136.6,-21.2 -205.6,-41.9 z m -8760.3,-61.6 c 9.1,26.2 35.1,98.1 79.5,201.6 l 32.8,-14.1 c -44,-102.4 -69.6,-173.4 -78.6,-199.2 z m 8369.4,-121.4 c 63.3,39.8 126.9,75.1 189.2,104.6 l 15.3,-32.2 c -61,-29 -123.4,-63.5 -185.4,-102.6 z m -3530.3,50 30.6,18.4 c 36.9,-61.6 73.4,-123.3 109.4,-185.3 l -30.8,-17.9 c -36,61.8 -72.4,123.4 -109.2,184.8 z m 3187.5,-311.8 c 55.4,49.4 111.2,95.8 165.9,137.9 l 21.8,-28.3 c -54.1,-41.5 -109.2,-87.4 -163.9,-136.2 z m -2972,-58.7 31.1,17.5 c 35.4,-62.6 70.2,-125.3 104.5,-187.8 l -31.3,-17.2 c -34.2,62.4 -69,124.9 -104.3,187.5 z m 2667.9,-246.6 c 49.4,55 99.1,107.7 147.8,156.7 l 25.4,-25.1 c -48.3,-48.6 -97.7,-100.9 -146.7,-155.5 z m -2461.5,-129.5 31.5,16.9 c 34.1,-63.8 67.5,-127.2 100.3,-190.1 l -31.7,-16.5 c -32.7,62.8 -66.1,126.1 -100.1,189.7 z m 2187,-201.8 c 44.6,58.1 89.7,114.6 133.9,168.1 l 27.5,-22.7 c -44,-53.2 -88.7,-109.4 -133.1,-167.2 z m -251.8,-349.2 c 41,60.4 82.5,119.7 123.3,176.3 l 29,-20.8 c -40.6,-56.4 -81.9,-115.5 -122.8,-175.6 z m -1736.9,170.5 31.8,16.2 c 33,-64.8 65.1,-128.9 96.5,-192.1 l -32,-15.9 c -31.3,63.1 -63.4,127.1 -96.3,191.8 z m 1503.7,-532.1 c 38,61.8 76.5,123.1 114.5,182.1 l 30,-19.3 c -39.2,-60.8 -77.2,-121.5 -114,-181.5 z m -1312.8,147.7 32.1,15.6 c 32,-66 63,-130.6 93,-193.9 l -32.3,-15.3 c -29.9,63.1 -60.9,127.7 -92.8,193.6 z m 1095.4,-519.1 c 34.1,60.8 69.7,123.2 106.9,186.8 l 30.8,-18.1 c -37,-63.3 -72.6,-125.5 -106.5,-186.1 z m -911.3,131.2 32.4,15 c 31.2,-67.4 61.2,-132.7 89.7,-195.4 l -32.6,-14.8 c -28.4,62.6 -58.3,127.8 -89.5,195.2 z m 707.9,-510.4 c 30.8,60 64.2,123.8 100,190.6 l 31.5,-16.9 c -35.7,-66.5 -69,-130.1 -99.7,-190 z m -530.4,119.1 32.6,14.5 c 31.2,-70.4 60.1,-136.3 86.5,-197.2 l -32.8,-14.2 c -26.3,60.8 -55.1,126.7 -86.3,196.9 z m 340.7,-505.8 c 24.3,52.2 55.5,117.9 93,194.3 l 32.1,-15.7 c -37.4,-76.2 -68.5,-141.6 -92.7,-193.7 z m -169.8,111 32.9,13.9 c 36.6,-86.9 64.4,-154.6 82.7,-199.4 l -33.1,-13.4 c -18.2,44.7 -46,112.3 -82.5,198.9"
         style="fill:#008789;fill-opacity:1;fill-rule:nonzero;stroke:none"
         id="path74" /><path
         d="m 26307.5,10016.5 -24,-26.5 360.2,-325.6 23.9,26.5 -360.1,325.6"
         style="fill:#008789;fill-opacity:1;fill-rule:nonzero;stroke:none"
         id="path76" /><path
         d="m 26655,9700.9 -287,-391.6 28.8,-21.1 287,391.5 -28.8,21.2"
         style="fill:#008789;fill-opacity:1;fill-rule:nonzero;stroke:none"
         id="path78" /><path
         d="m 35144.4,7142.8 h -293.7 v 472.7 h 293.7 v -472.7"
         style="fill:#073c5d;fill-opacity:1;fill-rule:nonzero;stroke:none"
         id="path80" /><path
         d="m 36305.8,3047.5 h -4404.7 v 2485.2 h 4404.7 V 3047.5"
         style="fill:#64c0c3;fill-opacity:1;fill-rule:nonzero;stroke:none"
         id="path82" /><path
         d="M 35475,7301.8 H 32724.7 L 31335.3,5532.7 h 5529.1 L 35475,7301.8"
         style="fill:#073c5d;fill-opacity:1;fill-rule:nonzero;stroke:none"
         id="path84" /><path
         d="m 34884.5,6059.3 -767.2,805.2 -767.2,-811.4 V 3047.5 h 1534.4 v 3011.8"
         style="fill:#ffd049;fill-opacity:1;fill-rule:nonzero;stroke:none"
         id="path86" /><path
         d="m 34350.5,3047.5 h -451.2 v 1052.8 h 451.2 V 3047.5"
         style="fill:#f5a40a;fill-opacity:1;fill-rule:nonzero;stroke:none"
         id="path88" /><path
         d="m 34271.8,3641.9 c 0,-23.7 -19.3,-42.9 -43,-42.9 -23.7,0 -43,19.2 -43,42.9 0,23.8 19.3,43 43,43 23.7,0 43,-19.2 43,-43"
         style="fill:#ffffff;fill-opacity:1;fill-rule:nonzero;stroke:none"
         id="path90" /><path
         d="m 32932.4,3885.4 v 898.8 c 0,214.8 -138.6,390.4 -307.9,390.4 h -14.4 c -169.4,0 -307.9,-175.6 -307.9,-390.4 v -898.8 h 630.2"
         style="fill:#ffffff;fill-opacity:1;fill-rule:nonzero;stroke:none"
         id="path92" /><path
         d="m 32932.4,4580.2 h -272.1 v 594.4 h -86 v -594.4 h -272.1 v -78.8 h 272.1 v -616 h 86 v 616 h 272.1 v 78.8"
         style="fill:#00878a;fill-opacity:1;fill-rule:nonzero;stroke:none"
         id="path94" /><path
         d="m 35911.9,3885.4 v 898.8 c 0,214.8 -138.6,390.4 -308,390.4 h -14.3 c -169.4,0 -308,-175.6 -308,-390.4 v -898.8 h 630.3"
         style="fill:#ffffff;fill-opacity:1;fill-rule:nonzero;stroke:none"
         id="path96" /><path
         d="m 35911.9,4580.2 h -272.2 v 594.4 h -85.9 v -594.4 h -272.2 v -78.8 h 272.2 v -616 h 85.9 v 616 h 272.2 v 78.8"
         style="fill:#00878a;fill-opacity:1;fill-rule:nonzero;stroke:none"
         id="path98" /><path
         d="M 34337.5,5440.2 V 5931 c 0,117.3 -84.7,213.2 -188.3,213.2 h -8.7 c -103.6,0 -188.3,-95.9 -188.3,-213.2 v -490.8 h 385.3"
         style="fill:#ffffff;fill-opacity:1;fill-rule:nonzero;stroke:none"
         id="path100" /><path
         d="m 34337.5,5819.6 h -166.4 v 324.6 h -52.5 v -324.6 h -166.4 v -43 h 166.4 v -336.4 h 52.5 v 336.4 h 166.4 v 43"
         style="fill:#f5a40a;fill-opacity:1;fill-rule:nonzero;stroke:none"
         id="path102" /><path
         d="m 35038,6006.6 -931.2,984.5 -931.2,-984.5 89.6,-67.2 841.6,896.8 841.5,-896.8 89.7,67.2"
         style="fill:#f5a40a;fill-opacity:1;fill-rule:nonzero;stroke:none"
         id="path104" /><path
         d="M 5812.89,19115.6 V 6012.9 h 5486.51 c 0,0 -585.2,8256.6 -3035.85,11310.4 -1634.68,2037 -2450.66,1792.3 -2450.66,1792.3"
         style="fill:#073c5d;fill-opacity:1;fill-rule:nonzero;stroke:none"
         id="path106" /><path
         d="m 7595.88,17163.1 c -22.47,36.8 -38.26,73.4 -48.56,109.3 H 5812.89 v -186.5 h 1831.82 c -16.43,25.6 -32.96,51.2 -48.83,77.2"
         style="fill:#00878a;fill-opacity:1;fill-rule:nonzero;stroke:none"
         id="path108" /><path
         d="M 7890.64,16732.2 H 5812.89 v -186.4 h 2216.14 c -46.09,62 -92.42,124 -138.39,186.4"
         style="fill:#00878a;fill-opacity:1;fill-rule:nonzero;stroke:none"
         id="path110" /><path
         d="M 8280.48,16194 H 5812.89 v -186.4 h 2585.17 c -37.33,63.1 -76.59,125.2 -117.58,186.4"
         style="fill:#00878a;fill-opacity:1;fill-rule:nonzero;stroke:none"
         id="path112" /><path
         d="M 8574.92,15653.9 H 5812.89 v -186.5 h 2826.35 c -18.76,63.6 -39.94,125.9 -64.32,186.5"
         style="fill:#00878a;fill-opacity:1;fill-rule:nonzero;stroke:none"
         id="path114" /><path
         d="m 9852.01,12518.6 c -50.91,36.8 -86.68,73.3 -110.02,109.2 h -3929.1 v -186.4 h 4149.75 c -37.24,25.6 -74.69,51.1 -110.63,77.2"
         style="fill:#ffd049;fill-opacity:1;fill-rule:nonzero;stroke:none"
         id="path116" /><path
         d="M 10519.7,12087.7 H 5812.89 v -186.5 h 5020.31 c -104.4,62 -209.3,124 -313.5,186.5"
         style="fill:#ffd049;fill-opacity:1;fill-rule:nonzero;stroke:none"
         id="path118" /><path
         d="M 11402.9,11549.5 H 5812.89 V 11363 h 5856.31 c -84.5,63.1 -173.5,125.2 -266.3,186.5"
         style="fill:#ffd049;fill-opacity:1;fill-rule:nonzero;stroke:none"
         id="path120" /><path
         d="M 12069.9,11009.3 H 5812.89 v -186.4 h 6402.71 c -42.5,63.6 -90.5,125.9 -145.7,186.4"
         style="fill:#ffd049;fill-opacity:1;fill-rule:nonzero;stroke:none"
         id="path122" /><path
         d="m 8346.65,17323.3 c -1634.68,2037 -2533.76,1875.3 -2533.76,1875.3 v -384.2 c 289.84,-258 1038.53,-1021.6 1415.34,-1491.1 C 9678.88,14269.5 9848.62,6012.9 9848.62,6012.9 h 1575.48 c 0,0 -626.8,8256.6 -3077.45,11310.4"
         style="fill:#222c53;fill-opacity:1;fill-rule:nonzero;stroke:none"
         id="path124" /><path
         d="M 6650.28,3038.8 H 2073.86 V 14383 H 6650.28 V 3038.8"
         style="fill:#00878a;fill-opacity:1;fill-rule:nonzero;stroke:none"
         id="path126" /><path
         d="m 6112.26,8238.5 h -481.89 v -596.3 h 481.89 v 596.3"
         style="fill:#00666b;fill-opacity:1;fill-rule:nonzero;stroke:none"
         id="path128" /><path
         d="m 4721.26,8919.8 v 582.7 h -481.89 v -582.7 h 481.89"
         style="fill:#00666b;fill-opacity:1;fill-rule:nonzero;stroke:none"
         id="path130" /><path
         d="m 4721.26,8238.5 h -481.89 v -596.3 h 481.89 v 596.3"
         style="fill:#00666b;fill-opacity:1;fill-rule:nonzero;stroke:none"
         id="path132" /><path
         d="m 3325.23,8919.8 v 582.7 h -481.9 v -582.7 h 481.9"
         style="fill:#00666b;fill-opacity:1;fill-rule:nonzero;stroke:none"
         id="path134" /><path
         d="m 3325.23,8238.5 h -481.9 v -596.3 h 481.9 v 596.3"
         style="fill:#00666b;fill-opacity:1;fill-rule:nonzero;stroke:none"
         id="path136" /><path
         d="m 6112.26,6340.8 v 582.8 h -481.89 v -582.8 h 481.89"
         style="fill:#00666b;fill-opacity:1;fill-rule:nonzero;stroke:none"
         id="path138" /><path
         d="m 4721.26,6340.8 v 582.8 h -481.89 v -582.8 h 481.89"
         style="fill:#00666b;fill-opacity:1;fill-rule:nonzero;stroke:none"
         id="path140" /><path
         d="m 4721.26,5050.7 v 582.7 h -481.89 v -582.7 h 481.89"
         style="fill:#00666b;fill-opacity:1;fill-rule:nonzero;stroke:none"
         id="path142" /><path
         d="m 3325.23,6340.8 v 582.8 h -481.9 v -582.8 h 481.9"
         style="fill:#00666b;fill-opacity:1;fill-rule:nonzero;stroke:none"
         id="path144" /><path
         d="M 9791.59,3038.8 H 5438.94 V 9470.3 H 9791.59 V 3038.8"
         style="fill:#64c0c3;fill-opacity:1;fill-rule:nonzero;stroke:none"
         id="path146" /><g
         id="g148"><g
           id="g150"
           clip-path="url(#clipPath154)"><path
             d="m 6695.4,8966.4 h -924.06 v -251 h 924.06 v 251"
             style="fill:url(#linearGradient160);fill-opacity:1;fill-rule:nonzero;stroke:none"
             id="path162" /></g></g><g
         id="g164"><g
           id="g166"
           clip-path="url(#clipPath170)"><path
             d="m 7775.71,8966.4 v -251 h 945.7 v 251 h -945.7"
             style="fill:url(#linearGradient176);fill-opacity:1;fill-rule:nonzero;stroke:none"
             id="path178" /></g></g><g
         id="g180"><g
           id="g182"
           clip-path="url(#clipPath186)"><path
             d="m 6695.4,8239.1 h -924.06 v -251 h 924.06 v 251"
             style="fill:url(#linearGradient192);fill-opacity:1;fill-rule:nonzero;stroke:none"
             id="path194" /></g></g><g
         id="g196"><g
           id="g198"
           clip-path="url(#clipPath202)"><path
             d="m 7775.71,8239.1 v -251 h 945.7 v 251 h -945.7"
             style="fill:url(#linearGradient208);fill-opacity:1;fill-rule:nonzero;stroke:none"
             id="path210" /></g></g><g
         id="g212"><g
           id="g214"
           clip-path="url(#clipPath218)"><path
             d="m 6695.4,7514.4 h -924.06 v -251 h 924.06 v 251"
             style="fill:url(#linearGradient224);fill-opacity:1;fill-rule:nonzero;stroke:none"
             id="path226" /></g></g><g
         id="g228"><g
           id="g230"
           clip-path="url(#clipPath234)"><path
             d="m 7775.71,7514.4 v -251 h 945.7 v 251 h -945.7"
             style="fill:url(#linearGradient240);fill-opacity:1;fill-rule:nonzero;stroke:none"
             id="path242" /></g></g><g
         id="g244"><g
           id="g246"
           clip-path="url(#clipPath250)"><path
             d="m 6695.4,6787.1 h -924.06 v -251 h 924.06 v 251"
             style="fill:url(#linearGradient256);fill-opacity:1;fill-rule:nonzero;stroke:none"
             id="path258" /></g></g><g
         id="g260"><g
           id="g262"
           clip-path="url(#clipPath266)"><path
             d="m 7775.71,6787.1 v -251 h 945.7 v 251 h -945.7"
             style="fill:url(#linearGradient272);fill-opacity:1;fill-rule:nonzero;stroke:none"
             id="path274" /></g></g><g
         id="g276"><g
           id="g278"
           clip-path="url(#clipPath282)"><path
             d="m 6695.4,6069.4 h -924.06 v -251.1 h 924.06 v 251.1"
             style="fill:url(#linearGradient288);fill-opacity:1;fill-rule:nonzero;stroke:none"
             id="path290" /></g></g><g
         id="g292"><g
           id="g294"
           clip-path="url(#clipPath298)"><path
             d="m 7775.71,6069.4 v -251.1 h 945.7 v 251.1 h -945.7"
             style="fill:url(#linearGradient304);fill-opacity:1;fill-rule:nonzero;stroke:none"
             id="path306" /></g></g><g
         id="g308"><g
           id="g310"
           clip-path="url(#clipPath314)"><path
             d="M 6695.4,5342.1 H 5771.34 V 5091 h 924.06 v 251.1"
             style="fill:url(#linearGradient320);fill-opacity:1;fill-rule:nonzero;stroke:none"
             id="path322" /></g></g><g
         id="g324"><g
           id="g326"
           clip-path="url(#clipPath330)"><path
             d="M 7775.71,5342.1 V 5091 h 945.7 v 251.1 h -945.7"
             style="fill:url(#linearGradient336);fill-opacity:1;fill-rule:nonzero;stroke:none"
             id="path338" /></g></g><g
         id="g340"><g
           id="g342"
           clip-path="url(#clipPath346)"><path
             d="m 6695.4,4617.4 h -924.06 v -251.1 h 924.06 v 251.1"
             style="fill:url(#linearGradient352);fill-opacity:1;fill-rule:nonzero;stroke:none"
             id="path354" /></g></g><g
         id="g356"><g
           id="g358"
           clip-path="url(#clipPath362)"><path
             d="m 7775.71,4617.4 v -251.1 h 945.7 v 251.1 h -945.7"
             style="fill:url(#linearGradient368);fill-opacity:1;fill-rule:nonzero;stroke:none"
             id="path370" /></g></g><g
         id="g372"><g
           id="g374"
           clip-path="url(#clipPath378)"><path
             d="M 6695.4,3890.1 H 5771.34 V 3639 h 924.06 v 251.1"
             style="fill:url(#linearGradient384);fill-opacity:1;fill-rule:nonzero;stroke:none"
             id="path386" /></g></g><g
         id="g388"><g
           id="g390"
           clip-path="url(#clipPath394)"><path
             d="M 7775.71,3890.1 V 3639 h 945.7 v 251.1 h -945.7"
             style="fill:url(#linearGradient400);fill-opacity:1;fill-rule:nonzero;stroke:none"
             id="path402" /></g></g><path
         d="M 12973.8,3038.8 H 9023.48 V 13724.2 H 12973.8 V 3038.8"
         style="fill:#00666b;fill-opacity:1;fill-rule:nonzero;stroke:none"
         id="path404" /><path
         d="M 12473.7,5999.3 H 9523.6 v 186.5 h 2950.1 v -186.5"
         style="fill:#00878a;fill-opacity:1;fill-rule:nonzero;stroke:none"
         id="path406" /><path
         d="M 12473.7,5459.2 H 9523.6 v 186.4 h 2950.1 v -186.4"
         style="fill:#00878a;fill-opacity:1;fill-rule:nonzero;stroke:none"
         id="path408" /><path
         d="M 12473.7,4920.9 H 9523.6 v 186.5 h 2950.1 v -186.5"
         style="fill:#00878a;fill-opacity:1;fill-rule:nonzero;stroke:none"
         id="path410" /><path
         d="M 12473.7,4380.8 H 9523.6 v 186.5 h 2950.1 v -186.5"
         style="fill:#00878a;fill-opacity:1;fill-rule:nonzero;stroke:none"
         id="path412" /><path
         d="m 10447.7,12874.6 h -924.1 v -186.5 h 924.1 v 186.5"
         style="fill:#64c0c3;fill-opacity:1;fill-rule:nonzero;stroke:none"
         id="path414" /><path
         d="m 11528,12874.6 v -186.5 h 945.7 v 186.5 H 11528"
         style="fill:#64c0c3;fill-opacity:1;fill-rule:nonzero;stroke:none"
         id="path416" /><path
         d="m 10447.7,12334.4 h -924.1 v -186.5 h 924.1 v 186.5"
         style="fill:#64c0c3;fill-opacity:1;fill-rule:nonzero;stroke:none"
         id="path418" /><path
         d="m 11528,12334.4 v -186.5 h 945.7 v 186.5 H 11528"
         style="fill:#64c0c3;fill-opacity:1;fill-rule:nonzero;stroke:none"
         id="path420" /><path
         d="m 10447.7,11796.2 h -924.1 v -186.5 h 924.1 v 186.5"
         style="fill:#64c0c3;fill-opacity:1;fill-rule:nonzero;stroke:none"
         id="path422" /><path
         d="m 11528,11796.2 v -186.5 h 945.7 v 186.5 H 11528"
         style="fill:#64c0c3;fill-opacity:1;fill-rule:nonzero;stroke:none"
         id="path424" /><path
         d="m 10447.7,11256.1 h -924.1 v -186.5 h 924.1 v 186.5"
         style="fill:#64c0c3;fill-opacity:1;fill-rule:nonzero;stroke:none"
         id="path426" /><path
         d="m 11528,11256.1 v -186.5 h 945.7 v 186.5 H 11528"
         style="fill:#64c0c3;fill-opacity:1;fill-rule:nonzero;stroke:none"
         id="path428" /><path
         d="m 10447.7,10723 h -924.1 v -186.5 h 924.1 v 186.5"
         style="fill:#64c0c3;fill-opacity:1;fill-rule:nonzero;stroke:none"
         id="path430" /><path
         d="m 11528,10723 v -186.5 h 945.7 V 10723 H 11528"
         style="fill:#64c0c3;fill-opacity:1;fill-rule:nonzero;stroke:none"
         id="path432" /><path
         d="m 10447.7,10182.8 h -924.1 v -186.4 h 924.1 v 186.4"
         style="fill:#64c0c3;fill-opacity:1;fill-rule:nonzero;stroke:none"
         id="path434" /><path
         d="m 11528,10182.8 v -186.4 h 945.7 v 186.4 H 11528"
         style="fill:#64c0c3;fill-opacity:1;fill-rule:nonzero;stroke:none"
         id="path436" /><path
         d="m 10447.7,9644.6 h -924.1 v -186.4 h 924.1 v 186.4"
         style="fill:#64c0c3;fill-opacity:1;fill-rule:nonzero;stroke:none"
         id="path438" /><path
         d="m 11528,9644.6 v -186.4 h 945.7 v 186.4 H 11528"
         style="fill:#64c0c3;fill-opacity:1;fill-rule:nonzero;stroke:none"
         id="path440" /><path
         d="M 10447.7,9104.5 H 9523.6 V 8918 h 924.1 v 186.5"
         style="fill:#64c0c3;fill-opacity:1;fill-rule:nonzero;stroke:none"
         id="path442" /><path
         d="M 11528,9104.5 V 8918 h 945.7 v 186.5 H 11528"
         style="fill:#64c0c3;fill-opacity:1;fill-rule:nonzero;stroke:none"
         id="path444" /><path
         d="M 12132.5,3028.4 H 15683 V 7513.7 H 12132.5 V 3028.4"
         style="fill:#afd7c7;fill-opacity:1;fill-rule:nonzero;stroke:none"
         id="path446" /><path
         d="m 15207.9,6337.5 v 582.7 h -364.7 v -582.7 h 364.7"
         style="fill:#00878a;fill-opacity:1;fill-rule:nonzero;stroke:none"
         id="path448" /><path
         d="m 15207.9,5656.3 h -364.7 v -596.4 h 364.7 v 596.4"
         style="fill:#00878a;fill-opacity:1;fill-rule:nonzero;stroke:none"
         id="path450" /><path
         d="m 14155,6337.5 v 582.7 h -364.8 v -582.7 h 364.8"
         style="fill:#00878a;fill-opacity:1;fill-rule:nonzero;stroke:none"
         id="path452" /><path
         d="m 14155,5656.3 h -364.8 v -596.4 h 364.8 v 596.4"
         style="fill:#00878a;fill-opacity:1;fill-rule:nonzero;stroke:none"
         id="path454" /><path
         d="m 13098.2,6337.5 v 582.7 h -364.8 v -582.7 h 364.8"
         style="fill:#00878a;fill-opacity:1;fill-rule:nonzero;stroke:none"
         id="path456" /><path
         d="m 13098.2,5656.3 h -364.8 v -596.4 h 364.8 v 596.4"
         style="fill:#00878a;fill-opacity:1;fill-rule:nonzero;stroke:none"
         id="path458" /><path
         d="m 15207.9,3758.6 v 582.7 h -364.7 v -582.7 h 364.7"
         style="fill:#00878a;fill-opacity:1;fill-rule:nonzero;stroke:none"
         id="path460" /><path
         d="m 13098.2,3758.6 v 582.7 h -364.8 v -582.7 h 364.8"
         style="fill:#00878a;fill-opacity:1;fill-rule:nonzero;stroke:none"
         id="path462" /><path
         d="m 6112.26,12910 v 582.8 H 5630.37 V 12910 h 481.89"
         style="fill:#00666b;fill-opacity:1;fill-rule:nonzero;stroke:none"
         id="path464" /><path
         d="m 6112.26,12228.8 h -481.89 v -596.4 h 481.89 v 596.4"
         style="fill:#00666b;fill-opacity:1;fill-rule:nonzero;stroke:none"
         id="path466" /><path
         d="m 4721.26,12910 v 582.8 H 4239.37 V 12910 h 481.89"
         style="fill:#00666b;fill-opacity:1;fill-rule:nonzero;stroke:none"
         id="path468" /><path
         d="m 4721.26,12228.8 h -481.89 v -596.4 h 481.89 v 596.4"
         style="fill:#00666b;fill-opacity:1;fill-rule:nonzero;stroke:none"
         id="path470" /><path
         d="m 3325.23,12910 v 582.8 h -481.9 V 12910 h 481.9"
         style="fill:#00666b;fill-opacity:1;fill-rule:nonzero;stroke:none"
         id="path472" /><path
         d="m 3325.23,12228.8 h -481.9 v -596.4 h 481.9 v 596.4"
         style="fill:#00666b;fill-opacity:1;fill-rule:nonzero;stroke:none"
         id="path474" /><path
         d="m 6112.26,10331.1 v 582.7 h -481.89 v -582.7 h 481.89"
         style="fill:#00666b;fill-opacity:1;fill-rule:nonzero;stroke:none"
         id="path476" /><path
         d="m 4721.26,10331.1 v 582.7 h -481.89 v -582.7 h 481.89"
         style="fill:#00666b;fill-opacity:1;fill-rule:nonzero;stroke:none"
         id="path478" /><path
         d="m 3325.23,10331.1 v 582.7 h -481.9 v -582.7 h 481.9"
         style="fill:#00666b;fill-opacity:1;fill-rule:nonzero;stroke:none"
         id="path480" /><path
         d="m 31043.3,8973.6 h -426.1 v 685.8 h 426.1 v -685.8"
         style="fill:#00666b;fill-opacity:1;fill-rule:nonzero;stroke:none"
         id="path482" /><path
         d="m 32728.3,3032.1 h -6390.4 v 3605.6 h 6390.4 V 3032.1"
         style="fill:#073c5d;fill-opacity:1;fill-rule:nonzero;stroke:none"
         id="path484" /><path
         d="M 31523,9204.2 H 27532.9 L 25517.1,6637.7 h 8021.7 L 31523,9204.2"
         style="fill:#00666b;fill-opacity:1;fill-rule:nonzero;stroke:none"
         id="path486" /><path
         d="M 30712.5,8123.6 29553.9,9484.8 28395.3,8113.2 V 3032.1 h 2317.2 v 5091.5"
         style="fill:#64c0c3;fill-opacity:1;fill-rule:nonzero;stroke:none"
         id="path488" /><path
         d="M 33829.7,4320.5 H 32728.3 V 3032.1 h 1101.4 v 1288.4"
         style="fill:#073c5d;fill-opacity:1;fill-rule:nonzero;stroke:none"
         id="path490" /><path
         d="M 32728.3,5588.2 34099.9,4320.5 H 32728.3 Z"
         style="fill:#00666b;fill-opacity:1;fill-rule:nonzero;stroke:none"
         id="path492" /><path
         d="m 27834.2,4247.8 v 1304 c 0,311.5 -201.1,566.3 -446.8,566.3 h -20.8 c -245.7,0 -446.8,-254.8 -446.8,-566.3 v -1304 h 914.4"
         style="fill:#ffffff;fill-opacity:1;fill-rule:nonzero;stroke:none"
         id="path494" /><path
         d="m 27834.2,5255.7 h -394.9 v 862.4 h -124.6 v -862.4 h -394.9 v -114.3 h 394.9 v -893.6 h 124.6 v 893.6 h 394.9 v 114.3"
         style="fill:#00878a;fill-opacity:1;fill-rule:nonzero;stroke:none"
         id="path496" /><path
         d="m 32156.8,4247.8 v 1304 c 0,311.5 -201.1,566.3 -446.8,566.3 h -20.8 c -245.8,0 -446.8,-254.8 -446.8,-566.3 v -1304 h 914.4"
         style="fill:#ffffff;fill-opacity:1;fill-rule:nonzero;stroke:none"
         id="path498" /><path
         d="m 32156.8,5255.7 h -394.9 v 862.4 h -124.7 v -862.4 h -394.8 v -114.3 h 394.8 v -893.6 h 124.7 v 893.6 h 394.9 v 114.3"
         style="fill:#00878a;fill-opacity:1;fill-rule:nonzero;stroke:none"
         id="path500" /><path
         d="m 29886.4,7076.9 v 829.8 c 0,198.3 -128,360.5 -284.3,360.5 h -13.3 c -156.4,0 -284.3,-162.2 -284.3,-360.5 v -829.8 h 581.9"
         style="fill:#ffffff;fill-opacity:1;fill-rule:nonzero;stroke:none"
         id="path502" /><path
         d="m 29886.4,7718.3 h -251.3 v 548.9 h -79.3 v -548.9 h -251.3 v -72.7 h 251.3 v -568.7 h 79.3 v 568.7 h 251.3 v 72.7"
         style="fill:#64c0c3;fill-opacity:1;fill-rule:nonzero;stroke:none"
         id="path504" /><path
         d="m 30944.1,8034.4 -1406.2,1664.3 -1406.2,-1664.3 135.4,-113.4 1270.8,1516 1270.9,-1516 135.3,113.4"
         style="fill:#00878a;fill-opacity:1;fill-rule:nonzero;stroke:none"
         id="path506" /><path
         d="m 6448.28,2769.6 c 0,0 0.57,-132 265.68,-211.2 54.39,-16.3 36.7,-32.4 46.91,-55.2 -87.03,0 -305.1,0 -305.1,0 l -119.45,134.3 -37.15,-31.9 -86.14,84.6 c 0,0 40.23,122.5 105.82,123.5 54.1,-18.4 129.43,-44.1 129.43,-44.1"
         style="fill:#222c53;fill-opacity:1;fill-rule:nonzero;stroke:none"
         id="path508" /><path
         d="m 6497.85,2883.9 -49.57,-114.3 v 0 c -45.13,-12.8 -93.61,1.9 -123.97,37.7 l -5.46,6.4 40.05,117.6 138.95,-47.4"
         style="fill:#f7b58e;fill-opacity:1;fill-rule:nonzero;stroke:none"
         id="path510" /><path
         d="m 7791.76,2717.2 c 0,0 95.15,-88.2 312.08,-143.5 47.75,-12.1 99.25,4.1 99.25,-74.7 -101.3,0 -263.26,0 -263.26,0 l -218.95,37.9 V 2499 h -118.26 c 0,0 -32.93,193.4 36.15,218.2 63.96,0 152.99,0 152.99,0"
         style="fill:#222c53;fill-opacity:1;fill-rule:nonzero;stroke:none"
         id="path512" /><path
         d="m 7768.5,2856.1 23.26,-138.9 v 0 c -43.15,-29.9 -99.81,-31.8 -144.87,-4.8 l -8.12,4.8 11.77,138.9 h 117.96"
         style="fill:#f7b58e;fill-opacity:1;fill-rule:nonzero;stroke:none"
         id="path514" /><path
         d="m 7292.98,5706.5 c 0,0 -248.42,-496.9 -343.01,-1180.6 -20.39,-147.3 -73.55,-289.2 -158.95,-411 -242.41,-345.8 -457.51,-1211.4 -457.51,-1211.4 l 166.96,-47.4 1186.35,1902.6 -8.05,918 -385.79,29.8"
         style="fill:#222c53;fill-opacity:1;fill-rule:nonzero;stroke:none"
         id="path516" /><path
         d="m 7424.28,5695.9 c 0,0 -102.14,-622.8 62.55,-1235.3 29.91,-111.3 33.76,-227.3 14.95,-340.9 -70.6,-426.6 127.75,-1304.8 127.75,-1304.8 h 157.97 l 274.73,2829.8 -637.95,51.2"
         style="fill:#073c5d;fill-opacity:1;fill-rule:nonzero;stroke:none"
         id="path518" /><path
         d="m 7450.22,6833.1 c 0,0 -253.46,50.4 -212.18,211 41.28,160.5 515.12,743.5 515.12,743.5 l 370.9,41.2 c 0,0 -23.67,-89.7 -257.43,-130.5 -233.75,-40.8 -416.41,-865.2 -416.41,-865.2"
         style="fill:#f7b58e;fill-opacity:1;fill-rule:nonzero;stroke:none"
         id="path520" /><path
         d="m 7818.66,7678.6 c -22.35,35.9 -43.94,72.2 -65.8,108.6 0.05,0.1 0.3,0.4 0.3,0.4 l 370.9,41.2 c 0,0 -23.67,-89.7 -257.43,-130.5 -16.26,-2.8 -32.25,-9.8 -47.97,-19.7"
         style="fill:#f39e84;fill-opacity:1;fill-rule:nonzero;stroke:none"
         id="path522" /><path
         d="m 7825.42,7383.6 -23.36,-269.1 -260.13,82.5 66.99,214.4 216.5,-27.8"
         style="fill:#f39e84;fill-opacity:1;fill-rule:nonzero;stroke:none"
         id="path524" /><path
         d="m 7828.71,7849.4 c 0,0 199.18,-299.9 144.24,-475.2 -61.81,-88 -315.95,34.3 -315.95,34.3 v 406.6 l 171.71,34.3"
         style="fill:#f7b58e;fill-opacity:1;fill-rule:nonzero;stroke:none"
         id="path526" /><path
         d="m 7866.63,7840.6 c 0,0 -65.39,-9.8 -113.47,-53 -48.07,-43.2 -6.87,-217.1 -6.87,-217.1 l 2.1,-61.3 c 2.6,-76 -58.31,-139 -134.38,-139 h -5.09 c 0,0 -329.67,328.1 -192.31,479.2 240.39,219.8 450.02,-8.8 450.02,-8.8"
         style="fill:#222c53;fill-opacity:1;fill-rule:nonzero;stroke:none"
         id="path528" /><path
         d="m 7801.25,7577.4 c 4.8,21.3 -12.28,46.8 -38.15,57 -25.86,10.1 -50.72,1.2 -55.51,-20.1 -4.79,-21.2 12.29,-46.7 38.14,-56.9 25.87,-10.2 50.73,-1.2 55.52,20"
         style="fill:#f7b58e;fill-opacity:1;fill-rule:nonzero;stroke:none"
         id="path530" /><path
         d="m 7931.74,7904.4 c 0,-45.6 -50.36,-82.5 -112.48,-82.5 -62.12,0 -277.33,36.9 -277.33,82.5 0,45.5 215.21,82.4 277.33,82.4 62.12,0 112.48,-36.9 112.48,-82.4"
         style="fill:#222c53;fill-opacity:1;fill-rule:nonzero;stroke:none"
         id="path532" /><path
         d="m 7292.98,5706.5 c 0,0 -263.85,1649.7 405.24,1515.2 653.16,-131.2 364.01,-1577 364.01,-1577 l -769.25,61.8"
         style="fill:#00666b;fill-opacity:1;fill-rule:nonzero;stroke:none"
         id="path534" /><path
         d="m 7636.29,7082.6 c 0,0 -428.41,-528 -363.37,-675.6 65.04,-147.6 619.83,-743.3 651.35,-776.7 48.48,-69.3 -33.97,-336 130.87,-237.6 164.84,98.4 31.24,285.1 -6.4,328 l -413.95,679.3 246.35,331.9 -244.85,350.7"
         style="fill:#f7b58e;fill-opacity:1;fill-rule:nonzero;stroke:none"
         id="path536" /><path
         d="m 7501.15,6915.7 282.7,-320.2 114.53,116.5 c 73.94,75.2 105.18,185.7 71.93,285.8 -11.17,33.6 -29.25,66.5 -57.62,94.6 -1.13,1.1 -2.27,2.2 -3.41,3.3 -80.22,77.1 -210.53,65.2 -280.34,-21.4 l -127.79,-158.6"
         style="fill:#00878a;fill-opacity:1;fill-rule:nonzero;stroke:none"
         id="path538" /><path
         d="m 25222.1,7551.8 47.8,-226.9 238.5,65.9 -155.9,325.7 -130.4,-164.7"
         style="fill:#f39e84;fill-opacity:1;fill-rule:nonzero;stroke:none"
         id="path540" /><path
         d="m 25162.6,7488.6 c -27.7,-8 -54.3,-12 -71,-5.4 -115.6,89.6 -124.5,427.7 -124.5,427.7 l 109.2,93.3 192.2,-48.8 75.3,-204.4 c 20.1,-54.6 10.5,-116.1 -25.9,-165.9 v 0 c -41.7,-44.7 -95.2,-79.2 -155.3,-96.5"
         style="fill:#f7b58e;fill-opacity:1;fill-rule:nonzero;stroke:none"
         id="path542" /><path
         d="m 25280.8,7829.9 c -20,32 -41,113.8 -74.7,96.7 -24.5,-12.5 -112,-44.5 -141.8,-54 -71.1,-22.7 -206.7,-35.3 -241.3,72.9 -17.2,54.1 20.4,117.4 49.2,141.9 28.2,24 65.3,35.2 102.4,34.1 87,-2.3 210.1,-29.5 248.8,-8 65.2,36.2 147.8,17.6 165.7,-41.9 19.1,-63.6 16.5,-169.2 4.7,-239.6 -6.8,-40.7 -20.9,-79.7 -41.3,-115.5 v 0 l -71.7,113.4"
         style="fill:#222c53;fill-opacity:1;fill-rule:nonzero;stroke:none"
         id="path544" /><path
         d="m 25355.3,7845.1 c -20.3,8.9 -49.1,-3.2 -64.3,-27.1 -15.2,-23.9 -11.1,-50.5 9.2,-59.4 20.3,-8.9 49.1,3.2 64.3,27.1 15.3,23.8 11.1,50.4 -9.2,59.4"
         style="fill:#f7b58e;fill-opacity:1;fill-rule:nonzero;stroke:none"
         id="path546" /><path
         d="m 25405,7441.2 c 444,24.9 481.6,-370.1 518.9,-799.2 42.8,-492.6 9.7,-1030.2 9.7,-1030.2 h -1033.2 c 0,0 0.2,457.7 11,915.3 10.5,443.9 24.1,887.9 493.6,914.1"
         style="fill:#ffd049;fill-opacity:1;fill-rule:nonzero;stroke:none"
         id="path548" /><path
         d="m 24955.8,5838.3 c 0,0 -101.5,70 -139.1,53.3 -37.7,-16.7 -8.1,-87.2 -8.1,-87.2 l 147.2,33.9"
         style="fill:#f39e84;fill-opacity:1;fill-rule:nonzero;stroke:none"
         id="path550" /><path
         d="m 25682.6,6586.2 48.3,-327.4 -791.3,-394.3 86.3,-85.8 c 0,0 888.4,160 1014,277.4 125.5,117.3 38.6,586.7 38.6,586.7 l -395.9,-56.6"
         style="fill:#f7b58e;fill-opacity:1;fill-rule:nonzero;stroke:none"
         id="path552" /><path
         d="m 24796.6,6069.3 c -181.1,64 -70.5,687.2 -70.5,687.2 l 107,1 c 0,0 144.7,-752.2 -36.5,-688.2"
         style="fill:#f39e84;fill-opacity:1;fill-rule:nonzero;stroke:none"
         id="path554" /><path
         d="m 25074.2,5795.3 -186.4,-119.7 c -75,-34.5 -141.4,19.4 -195.4,95.4 -33.5,47.1 0.6,111.8 58.5,110.9 67,-1 148.3,-14.6 188.7,-17.4 l 134.6,-69.2"
         style="fill:#f7b58e;fill-opacity:1;fill-rule:nonzero;stroke:none"
         id="path556" /><path
         d="m 24697.6,6756.2 126.5,-76 c 0,0 533.7,863.4 269.8,636.1 -275.2,-237.2 -396.3,-560.1 -396.3,-560.1"
         style="fill:#ffd049;fill-opacity:1;fill-rule:nonzero;stroke:none"
         id="path558" /><path
         d="m 25325.4,2717.6 c 0,0 -0.6,-123.8 -249.1,-198 -50.9,-15.3 -34.4,-30.3 -43.9,-51.8 81.6,0 286,0 286,0 l 111.9,125.9 34.8,-29.9 80.8,79.3 c 0,0 -37.7,114.8 -99.2,115.8 -50.7,-17.3 -121.3,-41.3 -121.3,-41.3"
         style="fill:#222c53;fill-opacity:1;fill-rule:nonzero;stroke:none"
         id="path560" /><path
         d="m 25278.9,2824.7 46.5,-107.1 v 0 c 42.3,-12.1 87.7,1.7 116.2,35.3 l 5.1,6 -37.5,110.2 -130.3,-44.4"
         style="fill:#f7b58e;fill-opacity:1;fill-rule:nonzero;stroke:none"
         id="path562" /><path
         d="m 26078.5,6642.8 c 0,0 -169.5,788.3 -570.1,770.1 -400.5,-18.3 174.2,-826.7 174.2,-826.7 l 395.9,56.6"
         style="fill:#ffd049;fill-opacity:1;fill-rule:nonzero;stroke:none"
         id="path564" /><path
         d="m 24799,6056.1 c -251.1,202.7 242.1,1262.5 242.1,1262.5 l 119.5,-12 c 0,0 -9.2,-1405.3 -361.6,-1250.5"
         style="fill:#f7b58e;fill-opacity:1;fill-rule:nonzero;stroke:none"
         id="path566" /><path
         d="m 25222.1,7402.2 15.2,77.7 205.1,40.8 66,-82 -286.3,-36.5"
         style="fill:#ffffff;fill-opacity:1;fill-rule:nonzero;stroke:none"
         id="path568" /><path
         d="m 25041.1,7318.6 -15.2,202.1 c 0,0 100.8,154.6 196.2,113.1 17.5,-42.3 -13,-127.7 -13,-127.7 l -48.5,-199.5 -119.5,12"
         style="fill:#f7b58e;fill-opacity:1;fill-rule:nonzero;stroke:none"
         id="path570" /><path
         d="m 24900.4,5611.8 c 0,0 -144,-902.9 -110.2,-1320.5 33.9,-417.7 491.6,-1508.9 491.6,-1508.9 l 199.2,57.9 c 0,0 15.1,730 -180.5,1209.3 -42.9,105.1 -41,223 -0.1,328.9 160.7,416 223.3,692.6 223.3,692.6 l -15.3,540.7 h -608"
         style="fill:#222c53;fill-opacity:1;fill-rule:nonzero;stroke:none"
         id="path572" /><path
         d="m 25053.7,7327.1 -3.6,0.3 -14.3,190.7 c 13.4,19.4 99.2,138.1 178.7,108.4 10.5,-33 -6.7,-95.2 -14.8,-118.1 l -0.5,-2.3 c 6.7,1.7 13.8,2.8 21.2,3.4 6.9,21.2 26.7,89.3 10.6,128 l -1.5,3.6 -3.6,1.6 c -101.5,44 -203.8,-110.1 -208.1,-116.7 l -1.8,-2.8 16.1,-213.4 11.8,-1.2 c 2.7,6.4 6.1,12.6 9.8,18.5"
         style="fill:#f39e84;fill-opacity:1;fill-rule:nonzero;stroke:none"
         id="path574" /><path
         d="m 25713.3,2652.2 c 0,0 -89.2,-82.8 -292.5,-134.5 -44.8,-11.4 -93,3.8 -93,-70.1 94.9,0 246.7,0 246.7,0 l 205.2,35.5 v -35.5 h 110.9 c 0,0 30.9,181.3 -33.9,204.6 -59.9,0 -143.4,0 -143.4,0"
         style="fill:#222c53;fill-opacity:1;fill-rule:nonzero;stroke:none"
         id="path576" /><path
         d="m 25735.1,2782.4 -21.8,-130.2 v 0 c 40.5,-28.1 93.6,-29.9 135.8,-4.6 l 7.6,4.6 -11,130.2 h -110.6"
         style="fill:#f7b58e;fill-opacity:1;fill-rule:nonzero;stroke:none"
         id="path578" /><path
         d="m 25204.5,5611.8 479.4,-2868.1 h 191.8 c 0,0 165.2,772.7 37.6,1396.6 -22.1,108.2 -25,219.7 -8.5,329 121.5,805.6 28.8,1142.5 28.8,1142.5 h -729.1"
         style="fill:#073c5d;fill-opacity:1;fill-rule:nonzero;stroke:none"
         id="path580" /><path
         d="m 22740.5,2686.4 c 0,0 79.9,-74.1 262.2,-120.6 40.1,-10.2 83.4,3.5 83.4,-62.8 -85.1,0 -221.2,0 -221.2,0 l -184,31.9 V 2503 h -99.4 c 0,0 -27.7,162.6 30.4,183.4 53.7,0 128.6,0 128.6,0"
         style="fill:#222c53;fill-opacity:1;fill-rule:nonzero;stroke:none"
         id="path582" /><path
         d="m 22729.3,2803.2 11.2,-116.8 v 0 c -36.3,-25.1 -83.9,-26.7 -121.8,-4.1 l -6.8,4.1 -41.3,116.8 h 158.7"
         style="fill:#f7b58e;fill-opacity:1;fill-rule:nonzero;stroke:none"
         id="path584" /><path
         d="m 21856.2,2686.4 c 0,0 80,-74.1 262.3,-120.6 40.1,-10.2 83.4,3.5 83.4,-62.8 -85.1,0 -221.2,0 -221.2,0 l -184,31.9 V 2503 h -99.4 c 0,0 -27.7,162.6 30.4,183.4 53.7,0 128.5,0 128.5,0"
         style="fill:#222c53;fill-opacity:1;fill-rule:nonzero;stroke:none"
         id="path586" /><path
         d="m 21845.1,2803.2 11.1,-116.8 v 0 c -36.2,-25.1 -83.8,-26.7 -121.7,-4.1 l -6.8,4.1 -41.3,116.8 h 158.7"
         style="fill:#f7b58e;fill-opacity:1;fill-rule:nonzero;stroke:none"
         id="path588" /><path
         d="m 22388.1,5725.1 h 254.5 l 89.4,-2949.9 h -172 l -505.2,2400.9 333.3,549"
         style="fill:#222c53;fill-opacity:1;fill-rule:nonzero;stroke:none"
         id="path590" /><path
         d="m 22470.6,5725.1 -594.9,-2949.9 h -189.3 l 77.6,2949.9 h 706.6"
         style="fill:#073c5d;fill-opacity:1;fill-rule:nonzero;stroke:none"
         id="path592" /><path
         d="m 21953.8,5076.5 -57.1,4 c 0,0.2 2.2,40.3 -26.5,69.5 -22.1,22.5 -57.6,33.9 -105.5,33.9 -52.5,0 -91.8,-11.6 -113.8,-33.5 -21.7,-21.6 -20.9,-47 -20.8,-48.1 l -57.1,-3.2 c -0.4,4.9 -2.3,49.5 35.4,88.1 33.5,34.2 86.1,51.6 156.3,51.6 64.8,0 114.5,-17.4 147.8,-51.9 45.6,-47 41.5,-107.9 41.3,-110.4"
         style="fill:#222c53;fill-opacity:1;fill-rule:nonzero;stroke:none"
         id="path594" /><path
         d="m 22197.2,4462.1 h -851.8 v 548.1 h 851.8 v -548.1"
         style="fill:#222c53;fill-opacity:1;fill-rule:nonzero;stroke:none"
         id="path596" /><path
         d="m 21802.5,4640.7 c 0,-33.4 -15.9,-37.2 -35.6,-37.2 -19.6,0 -35.5,3.8 -35.5,37.2 V 4757 c -245.5,25.5 -386,69.1 -386,69.1 v -14.7 -417.6 c 0,-38.7 15,-70 37.6,-70 h 776.6 c 22.7,0 37.6,31.3 37.6,70 v 430.9 c -177.8,-41.3 -189.3,-42.2 -394.7,-66.9 v -117.1"
         style="fill:#ffda71;fill-opacity:1;fill-rule:nonzero;stroke:none"
         id="path598" /><path
         d="m 22025.5,4787.7 c -39.6,-77.2 -80.6,-152.8 -132.2,-223.3 -61.8,-84.6 -131.2,-164.2 -204,-240.6 h 470.3 c 22.7,0 37.6,31.3 37.6,70 v 430.9 c -79.9,-18.6 -126.3,-28.9 -171.7,-37"
         style="fill:#f5a40a;fill-opacity:1;fill-rule:nonzero;stroke:none"
         id="path600" /><path
         d="M 22159.6,5127.8 H 21383 c -22.6,0 -37.6,-31.3 -37.6,-70 v -209.7 c 136,-45.2 268,-62.8 386,-65.6 v 28.4 c 0,33.4 15.9,37.2 35.5,37.2 19.7,0 35.6,-3.8 35.6,-37.2 v -28.3 c 232.4,6 394.7,65.5 394.7,65.5 v 209.7 c 0,38.7 -14.9,70 -37.6,70"
         style="fill:#64c0c3;fill-opacity:1;fill-rule:nonzero;stroke:none"
         id="path602" /><path
         d="m 21736.5,4738 c -6,0 -11,-5 -11,-11 v -36 c 0,-6.1 5,-11 11,-11 h 61.7 c 6,0 11,4.9 11,11 v 36 c 0,6 -5,11 -11,11 z m 61.7,-62.4 h -61.7 c -8.5,0 -15.4,6.9 -15.4,15.4 v 36 c 0,8.5 6.9,15.4 15.4,15.4 h 61.7 c 8.5,0 15.4,-6.9 15.4,-15.4 v -36 c 0,-8.5 -6.9,-15.4 -15.4,-15.4"
         style="fill:#ffffff;fill-opacity:1;fill-rule:nonzero;stroke:none"
         id="path604" /><path
         d="m 21771.3,4713.1 c 0,-2.1 -1.8,-3.7 -4,-3.7 v 0 c -2.1,0 -3.9,1.6 -3.9,3.7 v 50.2 c 0,2.1 1.8,3.7 3.9,3.7 v 0 c 2.2,0 4,-1.6 4,-3.7 v -50.2"
         style="fill:#ffffff;fill-opacity:1;fill-rule:nonzero;stroke:none"
         id="path606" /><path
         d="m 23866.9,6163.6 c 8.8,-7 41.4,-28.2 120.2,-34.8 70.8,-5.9 221.6,25 192.8,-45 -67.7,-36.6 -143,-87.7 -143,-87.7 -43.2,-18.1 -119.7,0.7 -165.1,21.5 l -132.1,80.6 c 0,0 -11.3,74.2 -12.5,77.6 l 30.2,12.4 c 35.2,-14 72.3,-22 109.5,-24.6"
         style="fill:#f7b58e;fill-opacity:1;fill-rule:nonzero;stroke:none"
         id="path608" /><path
         d="m 23891.1,6132.5 c 0,0 2.4,-3.4 7.9,-8.5 -9.4,-3.8 -18.5,-8 -27.3,-12.6 -37.1,-1 -74.1,-3.1 -111.2,-4.5 2.3,21.4 5.4,51.4 5.3,53.5 l 240.8,57.4 c 0,0 19.5,-25.4 -24.5,-52.7 -44.1,-27.3 -91,-32.6 -91,-32.6"
         style="fill:#f7b58e;fill-opacity:1;fill-rule:nonzero;stroke:none"
         id="path610" /><path
         d="m 21804.2,5381.8 80,-176.1 c 0,0 -17.2,-96.7 -52.6,-134.4 -10.7,-11.4 -27.6,-14.4 -42,-8.5 -33.3,13.8 -110.3,47.1 -123,65.4 -6.3,9 -7.2,20.9 -3.9,31.4 l 23.3,77.5 2.9,180.7 115.3,-36"
         style="fill:#f7b58e;fill-opacity:1;fill-rule:nonzero;stroke:none"
         id="path612" /><path
         d="m 22275.5,7498 2.7,-235.8 -210.2,11.3 -13.2,365.6 220.7,-141.1"
         style="fill:#f39e84;fill-opacity:1;fill-rule:nonzero;stroke:none"
         id="path614" /><path
         d="m 22310.5,7476.2 c 29.4,0.8 56.6,5.2 70.8,16.8 84.7,123.2 -11.7,455.1 -11.7,455.1 l -135.4,57 -172,-107.2 -9.7,-222.5 c -2.7,-59.4 25.9,-116.4 76.7,-153.4 v 0 c 54.5,-30.6 117.4,-47.5 181.3,-45.8"
         style="fill:#f7b58e;fill-opacity:1;fill-rule:nonzero;stroke:none"
         id="path616" /><path
         d="m 22110,7771.8 c 9.4,37.4 -16.1,123.6 21.9,117.4 27.8,-4.6 122.9,-8.5 154.9,-8.5 76.3,0 212.3,29.8 212.3,145.9 0,58.1 -35.7,87.5 -71.4,102.3 -34.9,14.6 -74.5,-27.3 -110.3,-39.9 -84,-29.3 -257.3,-53.1 -301.7,-43.9 -50.4,10.5 -103.1,-40.9 -107,-71.7 -8.5,-67.3 36.6,-169.8 69.9,-234.7 19.3,-37.5 45.1,-71.1 76.2,-99.6 v 0 l 55.2,132.7"
         style="fill:#222c53;fill-opacity:1;fill-rule:nonzero;stroke:none"
         id="path618" /><path
         d="m 22012,7763.4 c 17,15 48.8,12.2 71.1,-6.3 22.2,-18.6 26.5,-45.8 9.5,-60.8 -17,-15 -48.8,-12.1 -71.1,6.4 -22.2,18.5 -26.5,45.7 -9.5,60.7"
         style="fill:#f7b58e;fill-opacity:1;fill-rule:nonzero;stroke:none"
         id="path620" /><path
         d="m 22166.5,7336.2 c -96,0 -177.8,-20.2 -246.6,-50.5 -169.6,-74.8 -289.8,-230.1 -332.2,-410.5 -66.8,-283.8 -178.9,-957.4 78,-1547.8 75.7,-6.8 172,0 172,0 l 27.5,1391.8 -19.4,-994.1 h 796.8 v 641.1 c 0,0 20.6,-144.8 213.2,-278.5 192.7,-133.7 915,-44.8 915,-44.8 v 150.7 c 0,0 -632.9,133 -736.1,211.3 -103.2,78.3 -326,642.5 -326,642.5 -69.9,137.7 -197.3,239.3 -348.6,270.4 -54.9,11.4 -119,18.4 -193.6,18.4"
         style="fill:#afd7c7;fill-opacity:1;fill-rule:nonzero;stroke:none"
         id="path622" /><path
         d="m 21856.8,5719.6 18.7,958 -20.6,0.6 -18.9,-958.6 h 20.8"
         style="fill:#ffffff;fill-opacity:1;fill-rule:nonzero;stroke:none"
         id="path624" /><path
         d="m 22064.1,7403.3 -13,-77.4 241.5,0.4 -15.8,77 h -212.7"
         style="fill:#ffffff;fill-opacity:1;fill-rule:nonzero;stroke:none"
         id="path626" /><path
         d="m 16013.3,2668 430.8,0.5 c 57.2,-6 121.1,-22.3 131.8,-71.9 0,0 7.5,-32.8 6.3,-65.6 -15.3,-17.9 -586.5,2.4 -586.5,2.4 l -2.5,2 c -60.5,72.9 20.1,132.6 20.1,132.6"
         style="fill:#123759;fill-opacity:1;fill-rule:nonzero;stroke:none"
         id="path628" /><path
         d="m 16582.2,2531 -586.5,2.4 5.1,-22.8 h 582.2 l -0.8,20.4"
         style="fill:#222c53;fill-opacity:1;fill-rule:nonzero;stroke:none"
         id="path630" /><path
         d="m 16183.8,2668.5 38.8,-0.3 -12,-52.8 h -37.7 l 10.9,53.1"
         style="fill:#ffffff;fill-opacity:1;fill-rule:nonzero;stroke:none"
         id="path632" /><path
         d="m 16267,2668.5 38.8,-0.3 -12.1,-52.8 h -37.6 l 10.9,53.1"
         style="fill:#ffffff;fill-opacity:1;fill-rule:nonzero;stroke:none"
         id="path634" /><path
         d="m 15983.8,2811.5 29.5,-143.5 v 0 c 34.6,-17.5 79.5,-18.6 115.5,-2.8 l 6.6,2.9 20.7,143.4 h -172.3"
         style="fill:#f7b58e;fill-opacity:1;fill-rule:nonzero;stroke:none"
         id="path636" /><path
         d="m 15006.5,2668 430.8,0.5 c 57.2,-6 121.1,-22.3 131.8,-71.9 0,0 7.5,-32.8 6.3,-65.6 -15.3,-17.9 -586.5,2.4 -586.5,2.4 l -2.5,2 c -60.5,72.9 20.1,132.6 20.1,132.6"
         style="fill:#222c53;fill-opacity:1;fill-rule:nonzero;stroke:none"
         id="path638" /><path
         d="m 15575.4,2531 -586.5,2.4 5.1,-22.8 h 582.2 l -0.8,20.4"
         style="fill:#222c53;fill-opacity:1;fill-rule:nonzero;stroke:none"
         id="path640" /><path
         d="m 15177.1,2668.5 38.7,-0.3 -12,-52.8 h -37.7 l 11,53.1"
         style="fill:#ffffff;fill-opacity:1;fill-rule:nonzero;stroke:none"
         id="path642" /><path
         d="m 15260.2,2668.5 38.8,-0.3 -12.1,-52.8 h -37.6 l 10.9,53.1"
         style="fill:#ffffff;fill-opacity:1;fill-rule:nonzero;stroke:none"
         id="path644" /><path
         d="m 15025.2,2811.5 -18.7,-143.5 v 0 c 34.6,-17.5 79.5,-18.6 115.5,-2.8 l 6.6,2.9 69,143.4 h -172.4"
         style="fill:#f7b58e;fill-opacity:1;fill-rule:nonzero;stroke:none"
         id="path646" /><path
         d="m 15668.1,7636.7 -354.8,-231.3 109.5,-280.3 c 1.6,-4 3.6,-7.6 5.4,-11.5 7.8,0.5 15.6,0.9 23.5,0.9 1.2,0 2.5,-0.1 3.8,-0.1 1.2,0 2.5,0.1 3.7,0.1 95,0 176.6,-58.4 226.1,-137 57.5,4.3 114.5,18.3 167.5,43.5 36.1,17.1 67.5,37.5 78.9,59.7 37.9,198.8 -263.6,556 -263.6,556"
         style="fill:#f7b58e;fill-opacity:1;fill-rule:nonzero;stroke:none"
         id="path648" /><path
         d="m 16119.3,7564.2 c 0,0 43.4,-411.7 -44,-673.9 40.6,-35.3 189.7,-195.1 236.6,12 46.9,207.2 -52.7,734.4 -52.7,734.4 l -139.9,-72.5"
         style="fill:#f7b58e;fill-opacity:1;fill-rule:nonzero;stroke:none"
         id="path650" /><path
         d="m 15906.5,7593.4 -83.5,-53.7 29.8,-62.3 89.5,39.4 -35.8,76.6"
         style="fill:#222c53;fill-opacity:1;fill-rule:nonzero;stroke:none"
         id="path652" /><path
         d="m 15857.3,7518.4 c 8.4,-19 9,-37.2 1.3,-40.5 -7.6,-3.4 -20.5,9.4 -28.9,28.4 -8.4,19.1 -9,37.2 -1.3,40.6 7.6,3.3 20.5,-9.4 28.9,-28.5"
         style="fill:#222c53;fill-opacity:1;fill-rule:nonzero;stroke:none"
         id="path654" /><path
         d="m 16913.5,7897.1 c 0.1,0.8 0.3,1.5 0.4,2.3 -15.7,35.8 -43.4,92.6 -80.7,144.9 -60.4,84.4 -77.6,126.6 -77.6,126.6 l -861.9,-564.1 55.8,-105.3 964.1,356.3 c -0.8,13.1 -1.1,26.3 -0.1,39.3"
         style="fill:#073c5d;fill-opacity:1;fill-rule:nonzero;stroke:none"
         id="path656" /><path
         d="m 15589.8,6977.3 -31,-193.5 h 274.3 l 19.7,237.2 -263,-43.7"
         style="fill:#f39e84;fill-opacity:1;fill-rule:nonzero;stroke:none"
         id="path658" /><path
         d="m 16298.1,6497 c 0,0 323.9,103.2 425.4,241.9 101.6,138.7 -70.2,897.8 -70.2,897.8 l 22.2,136.7 c 12.5,76.9 -46.5,146.8 -124.5,147.5 l -86.5,0.8 c -36,0.3 -60.3,-36.7 -45.7,-69.6 l 113.8,-256.1 c 0,0 85.5,-575 -34.2,-618.7 -142.7,-50.8 -304.2,-63.1 -304.2,-63.1 l 103.9,-417.2"
         style="fill:#f7b58e;fill-opacity:1;fill-rule:nonzero;stroke:none"
         id="path660" /><path
         d="m 15689.5,6977.3 -83.3,184.8 54.1,34 c 40,25.1 57.5,74.4 42.3,119.1 l -59.4,174.2 c 0,0 168.8,20.7 163.7,177.9 0,81 -111.4,81.4 -111.4,81.4 0,0 -33.3,-72.3 -136.7,-80.9 -44.4,5.6 -166.2,-10.8 -248.4,-154.3 -55.3,-96.5 -31.1,-247.6 17.1,-361 43.1,-101.7 153.2,-158.4 262.3,-175.2 h 99.7"
         style="fill:#123759;fill-opacity:1;fill-rule:nonzero;stroke:none"
         id="path662" /><path
         d="m 15360.1,5424.8 c 0,0 17.2,-394 102.4,-821.1 25.1,-125.8 15.7,-256 -25.2,-377.6 -193.5,-574.7 -464.7,-1438.8 -464.7,-1438.8 h 241.3 c 0,0 546.5,1021.3 687.4,1527.8 140.8,506.6 164.9,667.5 164.9,667.5 l -167.6,442.2 h -538.5"
         style="fill:#222c53;fill-opacity:1;fill-rule:nonzero;stroke:none"
         id="path664" /><path
         d="m 15561.3,7248.2 c -9.9,-29.1 10.2,-67.7 44.9,-86.1 34.7,-18.4 70.8,-9.7 80.8,19.4 9.9,29.1 -10.2,67.7 -44.9,86.1 -34.7,18.4 -70.8,9.7 -80.8,-19.4"
         style="fill:#f7b58e;fill-opacity:1;fill-rule:nonzero;stroke:none"
         id="path666" /><path
         d="m 16146.7,5424.8 h -786.6 V 6434 c 0,221 168.3,405.7 388.4,426.3 l 546.9,66.2 c 0,0 64.4,-98.5 243.6,-327.2 -215.4,-133.1 -464.7,-194.4 -464.7,-194.4 l 72.4,-980.1"
         style="fill:#ffffff;fill-opacity:1;fill-rule:nonzero;stroke:none"
         id="path668" /><path
         d="m 15360.1,5424.8 c 0,0 111.1,-402 521,-852.7 68.4,-68 167,-209.6 153,-409.7 l -84.6,-1375.1 h 244.7 c 0,0 298.2,1141.9 233.9,1704.8 -64.3,562.8 -281.4,932.7 -281.4,932.7 h -786.6"
         style="fill:#073c5d;fill-opacity:1;fill-rule:nonzero;stroke:none"
         id="path670" /><path
         d="m 16781.5,7990.6 c 42.4,-87.8 99.7,-147.8 128.2,-134.1 28.6,13.8 17.4,96.1 -24.9,183.8 -42.3,87.8 -99.7,147.8 -128.3,134 -28.5,-13.7 -17.3,-96 25,-183.7"
         style="fill:#64c0c3;fill-opacity:1;fill-rule:nonzero;stroke:none"
         id="path672" /><path
         d="m 16085.3,7732.2 7.3,-3.5 c 25.6,-12.3 55.1,-14.1 82.1,-5.1 l 4.8,1.6 c 44.4,14.8 79.1,49.9 93.3,94.5 v 0 c 6.3,19.9 -11.1,39.1 -31.5,34.9 l -54.5,-11.5 c -21.2,-4.4 -39.8,-17.1 -51.7,-35.2 l -49.8,-75.7"
         style="fill:#f7b58e;fill-opacity:1;fill-rule:nonzero;stroke:none"
         id="path674" /><path
         d="m 37442.8,4330.2 c 117,-836.3 -11,-1702.7 -11,-1695.2 0,7.6 -93.2,0 -93.2,0 0,0 -129.2,1016.6 -159.5,1355.9 -30.3,339.3 0,362 0,362 0,0 146.8,813.6 263.7,-22.7"
         style="fill:#f39e84;fill-opacity:1;fill-rule:nonzero;stroke:none"
         id="path676" /><path
         d="m 37473.6,6488.2 285.9,-182.3 120.7,251.4 -369.5,423.4 -37.1,-492.5"
         style="fill:#00666b;fill-opacity:1;fill-rule:nonzero;stroke:none"
         id="path678" /><path
         d="m 35964.3,8162.9 350.1,-914.9 223.6,166.4 -499.6,842.2 -74.1,-93.7"
         style="fill:#f7b58e;fill-opacity:1;fill-rule:nonzero;stroke:none"
         id="path680" /><path
         d="m 35944,8473.4 c 27.5,-22.3 45.9,-54.1 51.5,-89.1 l 42.9,-127.7 -13.6,-24.1 -60.5,-69.6 c -3.6,27.5 -23.9,47.7 -23.9,47.7 l -95.3,106.7 c 0,0 -156.2,182.2 -10.4,244 -85.6,169.2 -24.3,164.9 -24.3,164.9 l 76.6,-145 57,-107.8"
         style="fill:#f7b58e;fill-opacity:1;fill-rule:nonzero;stroke:none"
         id="path682" /><path
         d="m 35922,8440 c 0,0 31.6,29.8 3.5,100.4 -28.1,70.6 14.4,65.7 14.4,65.7 0,0 116.9,-275.3 79.4,-306.7 -37.6,-31.3 -97.3,140.6 -97.3,140.6"
         style="fill:#f7b58e;fill-opacity:1;fill-rule:nonzero;stroke:none"
         id="path684" /><path
         d="m 36967.8,7060 -104.9,-8.2 -356.2,415.2 -192.3,-219 c 0,0 176.4,-333.2 434.7,-678.2 14.7,-70.1 91.2,-775.9 91.2,-775.9 h 617.6 c 0,0 -98.3,517.9 75.4,806.1 173.8,288.2 -565.5,460 -565.5,460"
         style="fill:#00666b;fill-opacity:1;fill-rule:nonzero;stroke:none"
         id="path686" /><path
         d="m 37170.2,4330.2 c 116.9,-836.3 -11,-1702.7 -11,-1695.2 0,7.6 -93.3,0 -93.3,0 0,0 -129.2,1016.6 -159.5,1355.9 -30.3,339.3 0,362 0,362 0,0 146.9,813.6 263.8,-22.7"
         style="fill:#f7b58e;fill-opacity:1;fill-rule:nonzero;stroke:none"
         id="path688" /><path
         d="m 36945.3,7705.8 355.8,-124.5 -35.1,-265.6 c -0.5,-3.7 -1.5,-7.3 -2.2,-11 -6.8,-1.3 -13.7,-2.5 -20.5,-4.2 -1.1,-0.3 -2.2,-0.7 -3.3,-0.9 -1,-0.3 -2.1,-0.4 -3.2,-0.7 -82.1,-20.2 -140.2,-88 -166.3,-166.5 -50.6,-8.5 -102.9,-8.5 -154,2 -34.8,7.2 -66.3,18.1 -80.9,34.9 -75,163.7 109.7,536.5 109.7,536.5"
         style="fill:#f7b58e;fill-opacity:1;fill-rule:nonzero;stroke:none"
         id="path690" /><path
         d="m 36936.1,7482.2 c 32.1,-64.1 37.9,-139.6 7.3,-204.4 -48.4,-102.4 -44.1,-217.3 -11.9,-280.3 21.9,-43 79.4,-86 130.3,-117.7 53.5,-33.3 88.7,-89.4 94.5,-152.2 7.9,-86.4 16.1,-192.5 90.1,-218 214.7,-73.9 293.4,-66.8 322.1,112.2 7.3,45.7 4.8,112.8 -18.6,175.3 -28.3,76 -25.9,160.6 6.7,235 21.5,49 40.5,103 40.5,140.3 0,40.5 -37.1,97.5 -76.1,146.2 -48.7,60.7 -70.1,138 -63.2,215.6 6.9,77.4 -4,176.4 -82.6,243.5 -146.7,125.2 -472.3,-71.9 -472.3,-71.9 0,0 -31.3,-94.9 33.2,-223.6"
         style="fill:#222c53;fill-opacity:1;fill-rule:nonzero;stroke:none"
         id="path692" /><path
         d="m 37880.2,6557.3 137.4,-142.2 c 91.2,-94.5 119.4,-226 9.8,-298.3 l -448.8,-356.4 41.2,-77.3 c 34.8,-65 28.4,-144.4 -16.4,-203 l -47.5,-62.1 -105,360.4 325.5,406.3 c 34.8,36.3 26.6,95.7 -16.9,121.2 v 0 l 120.7,251.4"
         style="fill:#f7b58e;fill-opacity:1;fill-rule:nonzero;stroke:none"
         id="path694" /><path
         d="m 36840.3,5793.9 c 0,0 -90.5,-234.7 -90.5,-472.5 0,-130.6 113.1,-1115.6 113.1,-1115.6 0,0 479.2,0 588,0 -39.8,727.5 180.7,816.7 180.7,1131.1 0,221.8 -173.7,457 -173.7,457 h -617.6"
         style="fill:#073c5d;fill-opacity:1;fill-rule:nonzero;stroke:none"
         id="path696" /><path
         d="m 37431.8,2744.5 c 0,0 51.4,-40.5 42,-92 -9.4,-51.5 -22.8,-172.1 -22.8,-172.1 h -52.8 l 1.6,112.5 c -0.1,7.4 -113.4,-112.5 -132.5,-112.5 h -279.8 c 0,0 -18.6,75.9 145.7,100.3 164.3,24.4 298.6,163.8 298.6,163.8"
         style="fill:#222c53;fill-opacity:1;fill-rule:nonzero;stroke:none"
         id="path698" /><path
         d="m 37133.1,2744.5 c 0,0 51.4,-40.5 42,-92 -9.5,-51.5 -22.8,-172.1 -22.8,-172.1 h -52.9 l 1.7,112.5 c -0.2,7.4 -113.4,-112.5 -132.6,-112.5 h -279.7 c 0,0 -18.6,75.9 145.7,100.3 164.2,24.4 298.6,163.8 298.6,163.8"
         style="fill:#123759;fill-opacity:1;fill-rule:nonzero;stroke:none"
         id="path700" /><path
         d="m 3943.35,2654.6 c 0,0 38.47,-53.3 219.78,-99.4 39.91,-10.2 82.95,-17.2 82.95,-83 -84.67,0 -178.97,0 -178.97,0 l -183,31.6 v -31.6 h -98.84 c 0,0 -27.52,161.6 30.21,182.4 53.45,0 127.87,0 127.87,0"
         style="fill:#222c53;fill-opacity:1;fill-rule:nonzero;stroke:none"
         id="path702" /><path
         d="m 3952.75,2770.7 -9.4,-116.1 v 0 c -36.07,-25 -83.42,-26.6 -121.08,-4.1 l -6.79,4.1 v 116.1 h 137.27"
         style="fill:#f7b58e;fill-opacity:1;fill-rule:nonzero;stroke:none"
         id="path704" /><path
         d="m 3025.35,2631.4 c 0,0 38.47,-53.2 219.78,-99.4 39.91,-10.1 82.95,-17.1 82.95,-82.9 -84.66,0 -178.98,0 -178.98,0 l -182.99,31.6 v -31.6 h -98.84 c 0,0 -27.52,161.6 30.21,182.3 53.46,0 127.87,0 127.87,0"
         style="fill:#222c53;fill-opacity:1;fill-rule:nonzero;stroke:none"
         id="path706" /><path
         d="m 3034.74,2747.5 -9.39,-116.1 v 0 c -36.07,-25 -83.42,-26.5 -121.08,-4 l -6.79,4 v 116.1 h 137.26"
         style="fill:#f7b58e;fill-opacity:1;fill-rule:nonzero;stroke:none"
         id="path708" /><path
         d="m 4025.69,5624 -44.55,-2916.3 h -212.48 c 0,0 -323.41,2354.5 -254.37,2916.3 69.05,561.8 511.4,0 511.4,0"
         style="fill:#222c53;fill-opacity:1;fill-rule:nonzero;stroke:none"
         id="path710" /><path
         d="m 3801.12,5624.6 c 0,0 -73.97,-895.8 -243.86,-1391.8 C 3387.38,3736.9 3080.6,2707.7 3080.6,2707.7 h -219.89 c 0,0 367.24,2150.8 283.25,2916.9 v 0 h 657.16"
         style="fill:#103758;fill-opacity:1;fill-rule:nonzero;stroke:none"
         id="path712" /><path
         d="m 3992.57,7109.1 c 0,0 261.87,-610.7 328.32,-610.7 53.17,0 -19.94,498.6 -19.94,498.6 h 219.32 c 0,0 275.79,-854.6 56.48,-1010.8 -219.31,-156.1 -701.12,442 -701.12,442 l 116.94,680.9"
         style="fill:#ffd049;fill-opacity:1;fill-rule:nonzero;stroke:none"
         id="path714" /><path
         d="m 3211.76,5547.1 79.35,-196.2 c 38.22,-77.1 178.67,-79 271.93,-54.5 14.02,3.6 18.91,21.1 9.15,31.8 -51.21,56.1 -184.12,200.1 -230.19,232.3 l -130.24,-13.4"
         style="fill:#f7b58e;fill-opacity:1;fill-rule:nonzero;stroke:none"
         id="path716" /><path
         d="m 3875.63,7235.1 c 0,0 136.78,-92.7 136.78,-199.1 0,-106.3 0,-1411.4 0,-1411.4 h -801.35 v 1319.6 c 0,0 16.4,293.4 303.23,293.4 286.83,0 361.34,-2.5 361.34,-2.5"
         style="fill:#ffd049;fill-opacity:1;fill-rule:nonzero;stroke:none"
         id="path718" /><path
         d="m 3999.11,5624 v 1267.7 l 26.58,-0.9 V 5624 h -26.58"
         style="fill:#ffffff;fill-opacity:1;fill-rule:nonzero;stroke:none"
         id="path720" /><path
         d="m 3585.18,7550.3 v -332.8 c 0,0 55.33,-76 155.31,-76 99.98,0 99.98,72.1 99.98,72.1 v 213.3 l -147.97,38.5 -107.32,84.9"
         style="fill:#f39d83;fill-opacity:1;fill-rule:nonzero;stroke:none"
         id="path722" /><path
         d="m 3853.21,7363.6 c 30.78,1 59.31,6 74.23,19.3 88.78,141.5 -12.34,522.9 -12.34,522.9 l -322.18,-57.8 -10.26,-255.5 c -2.74,-68.3 27.15,-133.7 80.49,-176.3 v 0 c 57.12,-35.1 123.04,-54.6 190.06,-52.6"
         style="fill:#f7b58e;fill-opacity:1;fill-rule:nonzero;stroke:none"
         id="path724" /><path
         d="m 3744.49,7841.4 c 0,0 106.94,-20 219.44,0 112.5,20 40.52,143.9 40.52,143.9 0,0 -83.27,-38 -231.24,-16.1 -99.86,14.8 -126.71,34.1 -190.73,0 -86.97,-46.4 -65.96,-203.7 -65.96,-203.7 l 47.99,-332.6 h 17.97 c 0,0 4.42,197.8 4.42,265.1 18.8,30.7 39.2,30.7 54.9,23 17.02,-8.3 26.7,-26.7 26.7,-45.7 v -345.4 c 0,0 219.96,-94.8 275.96,-77.6 55.98,17.2 18.56,273.1 18.56,273.1 0,0 -64.56,28 -114.55,-28 -49.54,-55.5 -109.67,2.2 -109.67,2.2 l 5.69,341.8"
         style="fill:#222c53;fill-opacity:1;fill-rule:nonzero;stroke:none"
         id="path726" /><path
         d="m 4478.17,6997 -7.72,42.2 c -17.11,93.2 -106.23,209.2 -196.01,239.6 h -93.1 l 28.84,-198.9 131.38,-82.9 h 136.61"
         style="fill:#f7b58e;fill-opacity:1;fill-rule:nonzero;stroke:none"
         id="path728" /><path
         d="m 3613.86,7729.7 c 24.72,2.1 48.46,-21.6 53.02,-52.8 4.57,-31.3 -11.76,-58.3 -36.48,-60.3 -24.71,-2 -48.45,21.6 -53.01,52.9 -4.57,31.2 11.76,58.2 36.47,60.2"
         style="fill:#f7b58e;fill-opacity:1;fill-rule:nonzero;stroke:none"
         id="path730" /><path
         d="m 4248.53,7102 181.36,-105 c 0,0 -113.79,1.2 -115.64,0 l -191.97,160.7 c 0,0 13.93,28 57.42,4.3 43.51,-23.7 68.83,-60 68.83,-60"
         style="fill:#f7b58e;fill-opacity:1;fill-rule:nonzero;stroke:none"
         id="path732" /><path
         d="m 3296.37,7149.3 c 0,0 -453.04,-503.3 -453.04,-804.9 0,-301.7 367.73,-833.3 367.73,-833.3 l 181.65,53.1 c 0,0 -163.93,657.9 -163.93,833 0,175 336.72,431.6 336.72,431.6"
         style="fill:#ffd049;fill-opacity:1;fill-rule:nonzero;stroke:none"
         id="path734" /><path
         d="m 3242.07,6397.2 c 0,-150.7 133.37,-701.6 164.71,-830 -9.2,-2.4 -13,-3.1 -26.91,-6.7 -38.54,158.5 -164.38,688.6 -164.38,836.7 0,179.5 328,431.5 341.95,442.1 l 16.13,-21.1 c -3.33,-2.5 -331.5,-254.5 -331.5,-421"
         style="fill:#ffffff;fill-opacity:1;fill-rule:nonzero;stroke:none"
         id="path736" /><path
         d="m 4127.19,7431.4 c 0,0 -37.41,-194.9 82.99,-351.5 7.43,-9.6 20.1,-17 33.88,-18.8 27.93,-3.8 47.52,6 62.66,10.4 22.23,6.3 32.84,17.7 37.92,27.1 4.34,8.1 3.09,17.8 -2.64,26.3 -24.41,36.4 -99.85,161.4 -65.5,272.1 -64.25,51.8 -149.31,34.4 -149.31,34.4"
         style="fill:#f49a44;fill-opacity:1;fill-rule:nonzero;stroke:none"
         id="path738" /><path
         d="m 4323.42,7078.3 c 13.8,6.9 16.5,11.5 21.22,20.3 4.34,8.1 3.09,17.8 -2.64,26.3 -24.41,36.4 -99.85,161.4 -65.5,272.1 -22.71,18.3 -47.97,27.9 -71.2,32.7 -3.86,-121.5 22.19,-202.7 118.12,-351.4"
         style="fill:#f9b648;fill-opacity:1;fill-rule:nonzero;stroke:none"
         id="path740" /><path
         d="m 4234.7,7270.7 c 5.75,-27.9 19.28,-48.7 30.25,-46.5 10.97,2.3 15.21,26.7 9.49,54.6 -5.74,27.9 -19.28,48.7 -30.25,46.5 -10.97,-2.3 -15.22,-26.7 -9.49,-54.6"
         style="fill:#f49a44;fill-opacity:1;fill-rule:nonzero;stroke:none"
         id="path742" /><path
         d="m 4242,7324.5 11.54,2.7 -0.85,-5.8 -7.68,-3 -3.01,6.1"
         style="fill:#f49a44;fill-opacity:1;fill-rule:nonzero;stroke:none"
         id="path744" /><path
         d="m 4262.33,7224.1 13.98,2.7 -15.9,2.4 z"
         style="fill:#e5385e;fill-opacity:1;fill-rule:nonzero;stroke:none"
         id="path746" /><path
         d="m 4244.06,7272.6 c 5.74,-27.9 19.28,-48.7 30.24,-46.5 10.97,2.3 15.22,26.7 9.49,54.6 -5.74,28 -19.28,48.7 -30.25,46.5 -10.96,-2.3 -15.21,-26.7 -9.48,-54.6"
         style="fill:#ffcf4b;fill-opacity:1;fill-rule:nonzero;stroke:none"
         id="path748" /><path
         d="m 4078.27,7595.7 h -21.48 c -41.05,0 -74.65,-31.9 -74.65,-71.1 v -56.4 c 0,-39.1 33.6,-71.1 74.65,-71.1 h 21.48 v 198.6"
         style="fill:#ffcf4b;fill-opacity:1;fill-rule:nonzero;stroke:none"
         id="path750" /><path
         d="m 4734.8,7539.8 c 0,-154.1 -35.44,-279.1 -79.15,-279.1 -43.72,0 -79.15,125 -79.15,279.1 0,154.2 35.43,279.1 79.15,279.1 43.71,0 79.15,-124.9 79.15,-279.1"
         style="fill:#222c53;fill-opacity:1;fill-rule:nonzero;stroke:none"
         id="path752" /><path
         d="m 4573.02,7642.7 62.55,-40.7 v -90.3 l -64.49,-58.5 -22.29,117.4 24.23,72.1"
         style="fill:#ffffff;fill-opacity:1;fill-rule:nonzero;stroke:none"
         id="path754" /><path
         d="m 4576.5,7539.8 c 0,129.5 25.06,238.2 58.99,269.6 -0.05,0.1 -0.1,0.2 -0.15,0.2 -262.17,-189.2 -569.58,-215.8 -569.58,-215.8 v -197.1 c 0,0 415.69,23.4 569.58,-126.7 0.07,0 0.15,0.1 0.23,0.1 -33.97,31.4 -59.07,140.1 -59.07,269.7"
         style="fill:#073c5d;fill-opacity:1;fill-rule:nonzero;stroke:none"
         id="path756" /><path
         d="m 4644.11,7557 c 0,-25 -3.82,-45.3 -8.54,-45.3 -4.72,0 -8.55,20.3 -8.55,45.3 0,25.1 3.83,45.4 8.55,45.4 4.72,0 8.54,-20.3 8.54,-45.4"
         style="fill:#ffcf4b;fill-opacity:1;fill-rule:nonzero;stroke:none"
         id="path758" /><path
         d="m 4377.39,7141.5 c -6.41,-2.4 -28.86,-16.5 -101.31,-16.5 -52.73,0 -76.48,64.8 -85.49,100 -3.18,12.5 -5.96,30.1 9.54,38 l 84.73,11.7 92.53,-133.2"
         style="fill:#f7b58e;fill-opacity:1;fill-rule:nonzero;stroke:none"
         id="path760" /></g></g></svg>
